<?xml version="1.0" encoding="UTF-8" standalone="no"?>
<!-- Created with Inkscape (http://www.inkscape.org/) -->

<svg
   width="120"
   height="120"
   viewBox="0 0 120 120"
   version="1.1"
   id="svg1"
   sodipodi:docname="bubble1.svg"
   inkscape:version="1.4.2 (f4327f4, 2025-05-13)"
   xmlns:inkscape="http://www.inkscape.org/namespaces/inkscape"
   xmlns:sodipodi="http://sodipodi.sourceforge.net/DTD/sodipodi-0.dtd"
   xmlns="http://www.w3.org/2000/svg"
   xmlns:svg="http://www.w3.org/2000/svg">
  <sodipodi:namedview
     id="namedview1"
     pagecolor="#ffffff"
     bordercolor="#000000"
     borderopacity="0.25"
     inkscape:showpageshadow="2"
     inkscape:pageopacity="0.0"
     inkscape:pagecheckerboard="0"
     inkscape:deskcolor="#d1d1d1"
     inkscape:document-units="px"
     inkscape:zoom="6.4416667"
     inkscape:cx="63.648124"
     inkscape:cy="62.018111"
     inkscape:window-width="1920"
     inkscape:window-height="991"
     inkscape:window-x="-9"
     inkscape:window-y="-9"
     inkscape:window-maximized="1"
     inkscape:current-layer="layer1" />
  <defs
     id="defs1" />
  <g
     inkscape:label="Слой 1"
     inkscape:groupmode="layer"
     id="layer1">
    <ellipse
       style="fill:#00b837;fill-opacity:0;stroke:#000000"
       id="path9"
       cx="63.880981"
       cy="60.232861"
       rx="49.443726"
       ry="48.434669" />
    <path
       style="fill:#00b837;fill-opacity:0;stroke:#000000"
       id="path10"
       d="m 43.302889,24.866396 c -0.05876,0.116767 -0.100763,0.2436 -0.176274,0.350301 -0.345258,0.487865 -0.916097,1.029301 -1.309668,1.435765 -0.376308,0.388635 -0.740831,0.788962 -1.127657,1.167129 -1.178807,1.152417 -1.822906,1.675623 -3.087296,2.771455 -0.571699,0.50513 -1.144753,1.008732 -1.715098,1.515391 -0.581283,0.516376 -1.155248,1.041001 -1.739775,1.553703 -0.918826,0.805925 -2.337863,1.980957 -3.236101,2.833915 -0.971252,0.922293 -1.68982,1.738891 -2.589484,2.720627 -0.880368,1.21131 -1.154473,1.544176 -1.940731,2.795532 -0.274065,0.436186 -0.558078,0.86827 -0.789917,1.328292 -0.403648,0.800929 -0.843742,2.052968 -1.090195,2.914877 -0.1391,0.486466 -0.239803,0.9831 -0.359704,1.474651 -0.08636,0.602685 -0.357067,2.413412 -0.402866,3.037652 -0.03917,0.533873 -0.05884,2.62565 -0.06754,3.169744 -0.03394,1.8729 -0.01862,0.963678 -0.04637,2.72766 0.0081,1.405284 0.133124,2.803427 0.432732,4.177698 0.101422,0.465214 0.334592,1.282896 0.464247,1.750592 0.418609,1.593309 1.214751,3.052953 2.02663,4.475112 0.442453,0.770004 0.858902,1.554392 1.293781,2.328572 0,0 13.192386,5.567987 13.192386,5.567987 v 0 c -0.156541,-0.123938 -0.327303,-0.231775 -0.469622,-0.371813 -0.53197,-0.523445 -0.869562,-1.200899 -1.2403,-1.836885 -0.81365,-1.391867 -1.712697,-2.740099 -2.275237,-4.263553 -0.702237,-1.916971 -1.309477,-3.870555 -1.603304,-5.897619 -0.159822,-1.156073 -0.250595,-1.612346 -0.296757,-2.800911 -0.04947,-1.273841 0.0049,-1.752534 0.09748,-3.017145 0.132814,-1.813335 0.05847,-1.098707 0.34057,-2.892799 0.236072,-1.154951 0.298076,-1.655336 0.688634,-2.77364 0.15897,-0.455186 0.35245,-0.897827 0.545653,-1.339572 0.627786,-1.435384 1.372677,-2.81619 2.294854,-4.086004 0.334832,-0.461687 0.652594,-0.936249 1.004497,-1.385059 0.382782,-0.488193 0.791664,-0.955482 1.198135,-1.424136 0.859363,-0.990832 1.86366,-2.107848 2.821911,-2.998314 1.284862,-1.193974 2.19283,-1.843321 3.578894,-2.912021 0.604848,-0.424185 1.192458,-0.874078 1.814544,-1.272554 1.330609,-0.85232 2.085776,-1.218315 3.503863,-1.829976 0.90789,-0.391598 1.839213,-0.746335 2.826788,-0.867 z" />
  </g>
</svg>
