<?xml version="1.0" encoding="UTF-8" standalone="no"?>
<!-- Created with Inkscape (http://www.inkscape.org/) -->

<svg
   width="120"
   height="120"
   viewBox="0 0 120 120"
   version="1.1"
   id="svg1"
   sodipodi:docname="bubbles.svg"
   inkscape:version="1.4.2 (f4327f4, 2025-05-13)"
   xmlns:inkscape="http://www.inkscape.org/namespaces/inkscape"
   xmlns:sodipodi="http://sodipodi.sourceforge.net/DTD/sodipodi-0.dtd"
   xmlns="http://www.w3.org/2000/svg"
   xmlns:svg="http://www.w3.org/2000/svg">
  <sodipodi:namedview
     id="namedview1"
     pagecolor="#ffffff"
     bordercolor="#000000"
     borderopacity="0.25"
     inkscape:showpageshadow="2"
     inkscape:pageopacity="0.0"
     inkscape:pagecheckerboard="0"
     inkscape:deskcolor="#d1d1d1"
     inkscape:document-units="px"
     inkscape:zoom="6.4416667"
     inkscape:cx="63.648124"
     inkscape:cy="62.018111"
     inkscape:window-width="1920"
     inkscape:window-height="991"
     inkscape:window-x="-9"
     inkscape:window-y="-9"
     inkscape:window-maximized="1"
     inkscape:current-layer="layer1" />
  <defs
     id="defs1" />
  <g
     inkscape:label="Слой 1"
     inkscape:groupmode="layer"
     id="layer1">
    <ellipse
       style="fill:#00b837;fill-opacity:0;stroke:#000000"
       id="path11"
       cx="43.62225"
       cy="110.60802"
       rx="4.8124189"
       ry="4.890039" />
    <ellipse
       style="fill:#00b837;fill-opacity:0;stroke:#000000"
       id="path12"
       cx="58.447605"
       cy="93.764557"
       rx="7.8395858"
       ry="7.2962484" />
    <ellipse
       style="fill:#00b837;fill-opacity:0;stroke:#000000"
       id="path13"
       cx="36.248383"
       cy="85.924965"
       rx="11.56533"
       ry="10.478655" />
    <ellipse
       style="fill:#00b837;fill-opacity:0;stroke:#000000"
       id="path14"
       cx="80.491592"
       cy="66.985771"
       rx="19.793015"
       ry="18.706339" />
    <ellipse
       style="fill:#00b837;fill-opacity:0;stroke:#000000"
       id="path15"
       cx="39.663647"
       cy="34.540749"
       rx="28.331177"
       ry="28.952135" />
    <ellipse
       style="fill:#00b837;fill-opacity:0;stroke:#000000"
       id="path16"
       cx="93.764557"
       cy="29.029755"
       rx="12.108667"
       ry="10.866753" />
    <path
       style="fill:#00b837;fill-opacity:0;stroke:#000000"
       d="m 30.892626,14.902975 c -4.278918,1.716664 -6.627932,5.61343 -8.382924,9.624839 -0.464906,1.062643 -1.031327,2.257033 -1.241914,3.415265 -0.14926,0.820927 -0.173307,1.660795 -0.310479,2.483829 -0.07015,0.420906 -0.250132,0.819491 -0.310479,1.241915 -0.08782,0.614716 -0.02954,1.242617 0,1.862872 0.05302,1.113317 0.101154,5.208361 1.707633,5.743855 0.08256,0.02752 0.929584,0.0011 0.931436,0 0.494316,-0.29659 1.632346,-3.702178 1.707633,-3.880984 0.401613,-0.953833 0.834126,-1.939351 1.086675,-2.949547 0.143596,-0.574383 0.222434,-1.160245 0.465718,-1.707632 1.042039,-2.344588 2.123271,-4.557021 3.260026,-6.830531 0.877956,-1.755913 -0.18871,0.192747 0.465718,-1.552393 0.131021,-0.34939 0.45408,-0.597681 0.620957,-0.931436 0.356178,-0.712356 0.543352,-1.319579 0.776197,-2.018111 0.04895,-0.146864 0.03551,-0.842655 0,-0.931436 -0.05436,-0.135893 -0.245024,-0.17957 -0.310479,-0.310479 -0.08,-0.160005 0.01108,-0.288313 -0.155239,-0.620957 -0.167769,-0.335538 0,-1.154715 0,-1.552393"
       id="path18" />
    <path
       style="fill:#00b837;fill-opacity:0;stroke:#000000"
       d="m 75.135834,56.507115 c -0.879689,0.569211 -1.860256,1.006701 -2.639069,1.707632 -3.086243,2.777619 -2.749035,5.316932 -1.397153,9.003881 3.2e-4,8.76e-4 1.013415,3.108524 1.552393,3.570505 0.175705,0.150604 0.428406,0.182111 0.620957,0.310479 0.12178,0.08119 0.174586,0.256121 0.310479,0.310478 0.144136,0.05765 0.310478,0 0.465718,0 0.413971,0 0.841573,0.105353 1.241914,0 1.776726,-0.467559 4.966951,-2.9545 4.65718,-5.122898 -0.193715,-1.356008 -0.04281,0.04107 -0.465718,-1.086675 -0.09265,-0.247056 -0.08275,-0.522493 -0.155239,-0.776197 -0.343461,-1.202113 -0.849145,-2.164007 -1.397154,-3.260025 -0.07318,-0.146361 -0.06851,-0.326955 -0.155239,-0.465718 -0.512079,-0.819327 -1.154296,-1.538109 -1.707633,-2.32859 -0.398127,-0.568753 -0.620957,-1.241915 -0.931436,-1.862872 z"
       id="path19" />
    <path
       style="fill:#00b837;fill-opacity:0;stroke:#000000"
       d="m 33.997413,79.637774 c -1.071987,0.570009 -1.948063,1.050703 -2.639069,2.018112 -1.003711,1.405195 -1.086675,1.687208 -1.086675,3.570504 0,0.378045 0.01039,1.469578 0.776196,1.086676 1.643925,-0.821963 0.442107,-0.242155 1.241915,-1.241915 0.274293,-0.342866 0.642298,-0.600992 0.931436,-0.931436 0.07619,-0.08708 0.07342,-0.22866 0.155239,-0.310479 0.08182,-0.08182 0.228661,-0.07342 0.310479,-0.155239 0.448002,-0.448003 0.712377,-1.15524 1.241914,-1.552393 0.111109,-0.08333 0.740996,-0.430517 0.776197,-0.465718 0.02421,-0.02421 0.286269,-0.441508 0.310479,-0.465718 0.03659,-0.03659 0.118649,0.03659 0.155239,0 0.171429,-0.17143 -0.768913,-1.083034 -0.776197,-1.086676 -0.439083,-0.219541 -0.931436,-0.310478 -1.397153,-0.465718 z"
       id="path21" />
    <path
       style="fill:#00b837;fill-opacity:0;stroke:#000000"
       d="m 56.351876,90.504527 c 0.61928,0 1.259829,-0.02567 1.862871,0.15524 0.140189,0.04206 0.19339,0.222662 0.310479,0.310478 0.209427,0.157071 0.592303,0.281824 0.776197,0.465718 0.182951,0.182952 0.282766,0.438006 0.465718,0.620958 0.08182,0.08182 0.246295,0.05896 0.310478,0.155239 0.05741,0.08611 -0.03273,0.212297 0,0.310479 0.05996,0.17989 0.752118,0.489796 0.931436,0.310478 0.112808,-0.112807 -0.243642,-1.607378 -0.310478,-1.707632 -0.0287,-0.04306 -0.118649,0.03659 -0.15524,0 -0.08182,-0.08182 -0.07342,-0.228661 -0.155239,-0.310479 -0.163637,-0.163637 -0.428407,-0.182112 -0.620957,-0.310479 -0.265496,-0.176997 -0.445613,-0.688524 -0.620958,-0.776196 -0.146361,-0.07318 -0.334808,-0.05706 -0.465718,-0.15524 -0.09257,-0.06943 -0.05896,-0.246295 -0.155239,-0.310478 -0.163929,-0.109286 -2.059373,0 -2.32859,0"
       id="path22" />
    <path
       style="fill:#00b837;fill-opacity:0;stroke:#000000"
       d="m 91.591203,20.957309 c -0.554983,0.06783 -1.481588,0.251109 -2.018112,0.465718 -0.107432,0.04297 -0.05175,0.258732 -0.155239,0.310479 -0.04628,0.02314 -0.155239,-0.05175 -0.155239,0 0,0.05175 0.118649,-0.03659 0.155239,0 0.03659,0.03659 0,0.103493 0,0.155239 0.103493,0.05175 0.22866,0.07342 0.310479,0.155239 0.03659,0.03659 -0.04628,0.132098 0,0.15524 0.164117,0.08206 0.447099,0.06831 0.620957,0.155239 0.115509,0.05775 0.917708,0.618669 0.931436,0.620957 0.529593,0.08827 1.796944,0.07595 2.32859,0 0.194616,-0.0278 2.285261,-1.285243 1.862872,-1.707632 -0.277601,-0.277602 -0.510144,-0.02221 -0.776197,-0.15524 -0.761725,-0.380862 -0.61295,-0.310478 -1.552393,-0.310478 -0.557193,0 -0.941233,0.06793 -1.552393,0.155239 z"
       id="path24" />
  </g>
</svg>
