<?xml version="1.0" encoding="UTF-8" standalone="no"?>
<!-- Created with Inkscape (http://www.inkscape.org/) -->

<svg
   width="120"
   height="120"
   viewBox="0 0 120 120"
   version="1.1"
   id="svg1"
   sodipodi:docname="fish1.svg"
   inkscape:version="1.4.2 (f4327f4, 2025-05-13)"
   xmlns:inkscape="http://www.inkscape.org/namespaces/inkscape"
   xmlns:sodipodi="http://sodipodi.sourceforge.net/DTD/sodipodi-0.dtd"
   xmlns="http://www.w3.org/2000/svg"
   xmlns:svg="http://www.w3.org/2000/svg">
  <sodipodi:namedview
     id="namedview1"
     pagecolor="#ffffff"
     bordercolor="#000000"
     borderopacity="0.25"
     inkscape:showpageshadow="2"
     inkscape:pageopacity="0.0"
     inkscape:pagecheckerboard="0"
     inkscape:deskcolor="#d1d1d1"
     inkscape:document-units="px"
     inkscape:zoom="6.4416667"
     inkscape:cx="63.648124"
     inkscape:cy="62.018111"
     inkscape:window-width="1920"
     inkscape:window-height="991"
     inkscape:window-x="-9"
     inkscape:window-y="-9"
     inkscape:window-maximized="1"
     inkscape:current-layer="layer1" />
  <defs
     id="defs1" />
  <g
     inkscape:label="Слой 1"
     inkscape:groupmode="layer"
     id="layer1">
    <path
       style="fill:#00b837;fill-opacity:0;stroke:#000000"
       d="m 27.943079,86.778784 c 0,-3.725744 0,-7.451488 0,-11.177232 0,-2.926356 0.147432,-6.219982 -1.707633,-8.693402 -0.913082,-1.217444 -3.075208,-2.287708 -4.346701,-3.260026 -2.720992,-2.080759 -5.277521,-4.154879 -7.451488,-6.830531 -0.417879,-0.514313 -0.881914,-0.996028 -1.241914,-1.552393 -0.21409,-0.330865 -0.289476,-0.734191 -0.465718,-1.086675 -0.757893,-1.515786 -0.652474,-0.772507 -1.241915,-2.639069 -0.473048,-1.497986 -0.620957,-3.097952 -0.620957,-4.657179 0,-0.724451 -0.08986,-1.454495 0,-2.173351 0.702039,-5.616313 3.865906,-9.22131 9.469599,-10.401035 1.611826,-0.339332 3.877839,-0.313623 5.122898,0.931436 0.234292,0.234292 0.400827,0.528551 0.620957,0.776197 0.194474,0.218783 0.458584,0.377398 0.620957,0.620957 0.154575,0.231862 0.185857,0.526953 0.310479,0.776197 0.814211,1.628422 0.776196,1.818691 0.776196,3.570504 0,0.55254 0.06806,1.163173 0,1.707633 -0.0203,0.162373 -0.133612,0.303517 -0.155239,0.465718 -0.118,0.885003 -0.465186,4.114816 0,4.967658 0.233764,0.428567 0.53022,0.82024 0.776197,1.241915 0.116604,0.199893 0.159874,0.445252 0.310478,0.620957 0.168381,0.196444 0.446916,0.274272 0.620958,0.465718 1.196021,1.315624 1.356707,1.954706 2.794308,3.104787 0.655499,0.524399 1.426364,1.1789 2.17335,1.552393 0.292722,0.146361 0.638714,0.164118 0.931436,0.310479 0.130909,0.06545 0.201689,0.212568 0.310479,0.310478 1.706925,1.536233 2.447584,2.167888 2.639068,4.65718 0.100081,1.301049 0.07847,2.75082 -0.155239,4.036222 -0.194105,1.067579 -0.17545,0.202109 -0.310479,1.552394 -0.173139,1.73139 -0.378696,3.537709 -0.465718,5.278137 -0.07281,1.456287 -0.159907,3.37325 0,4.812419 0.06314,0.568209 0.401464,1.129346 0.465718,1.707633 0.100542,0.904873 -0.164849,0.747366 0.15524,1.707632 0.059,0.177 0.22704,0.298841 0.310478,0.465718 0.318747,0.637495 0.250087,1.181522 0.776197,1.707633 0.460535,0.460535 0.565089,1.161203 1.086675,1.552393 0.468784,0.351588 2.317565,1.031254 2.949547,1.241915 0.19362,0.06454 2.011754,0.06464 2.173351,0 0.958624,-0.38345 1.758562,-1.530551 2.32859,-2.32859 0.299204,-0.418886 1.419342,-1.774197 1.552393,-2.173351 0.08182,-0.245455 -0.07435,-0.528376 0,-0.776196 0.184717,-0.615724 0.875534,-1.036807 0.931436,-1.707633 0.102716,-1.23259 0,-3.038645 0,-4.191462 0,-1.95704 -0.641947,-3.555636 -1.086675,-5.433376 -0.30405,-1.283766 -0.501644,-2.590587 -0.776197,-3.880983 -1.344629,-6.319757 -2.608948,-12.739765 -4.967658,-18.783959 -0.471804,-1.208996 -1.048775,-2.374411 -1.552393,-3.570504 -2.368423,-5.625004 0.534675,1.072469 -1.862872,-4.81242 -0.638341,-1.566836 -1.37222,-3.093441 -2.018112,-4.657179 -1.256675,-3.042477 -2.794308,-6.388569 -2.794308,-9.780078 0,-0.307685 -0.177153,-1.324624 0,-1.552393 0.292898,-0.376583 0.724451,-0.620958 1.086676,-0.931436 0.362225,-0.310479 0.675465,-0.689548 1.086675,-0.931436 0.480379,-0.282576 1.053906,-0.371714 1.552393,-0.620957 0.718821,-0.359411 2.366215,-1.532791 3.415265,-1.707633 0.01085,-0.0018 3.654335,-0.435834 4.65718,-0.310479 1.527505,0.190938 2.488303,0.863917 3.570505,1.862872 1.077817,0.994908 1.930478,1.721409 2.483829,3.104787 0.146361,0.365902 0.388431,0.700239 0.465718,1.086675 0.559296,2.796478 -2.180813,6.505495 -2.949547,9.003881 -0.09257,0.300842 -0.06479,0.629949 -0.15524,0.931436 -0.132994,0.443315 -0.493807,0.796888 -0.620957,1.241915 -0.161986,0.566952 -0.01576,2.324057 0.155239,2.794307 0.935125,2.571592 3.521572,4.417256 5.433377,6.209573 0.747431,0.700717 1.420524,1.478435 2.17335,2.173351 0.350559,0.323593 0.767527,0.576826 1.086676,0.931436 0.15481,0.172011 0.159874,0.445252 0.310478,0.620957 0.168381,0.196444 0.452577,0.269274 0.620958,0.465718 0.813598,0.949199 1.698328,2.254157 1.862872,3.570505 0.319858,2.558869 -0.755377,5.081258 -1.862872,7.296248 -0.207517,0.415034 -0.921684,1.523137 -1.086676,2.018111 -0.04909,0.147273 0.03765,0.315114 0,0.465718 -0.560296,2.241188 -0.03504,-0.320543 -0.620957,1.241915 -0.301776,0.804737 -0.07213,0.649171 -0.155239,1.397154 -0.105351,0.948154 -0.503566,1.855174 -0.620958,2.794308 -0.112613,0.900908 -0.09022,2.04735 0,2.949547 0.141476,1.414759 1.414899,3.620565 2.173351,4.812419 0.516764,0.812058 1.184732,1.520471 1.707633,2.32859 0.265201,0.409857 0.557878,0.805278 0.776196,1.241915 0.07318,0.146361 0.05706,0.334808 0.15524,0.465718 0.06943,0.09257 0.22866,0.07342 0.310478,0.155239 1.31243,1.31243 -0.08951,0.02097 0.620958,1.086675 0.121779,0.18267 0.328571,0.294285 0.465718,0.465718 0.07228,0.09035 0.07342,0.228661 0.155239,0.310479 0.131928,0.131928 0.346276,0.167148 0.465718,0.310478 0.403793,0.484552 0.223061,0.601362 0.465718,1.086676 -0.08606,0.384472 0.350009,0.38954 0.465718,0.620957 0.448141,0.896283 -1.086675,2.310075 -1.086675,2.639069 0,0.463902 3.933495,1.172664 4.657179,0.931436 0.599224,-0.199741 1.194596,-0.740999 1.552394,-1.241915 0.134508,-0.188312 0.171628,-0.435824 0.310478,-0.620957 0.03105,-0.0414 0.118649,0.03659 0.15524,0 1.090603,-1.090604 1.855958,-4.22603 1.552393,-5.743855 -0.169302,-0.84651 -0.622926,-1.681703 -0.931436,-2.48383 -0.358276,-0.931517 -1.346811,-2.748173 -1.552393,-3.570504 -0.0502,-0.200806 0.0449,-0.418901 0,-0.620957 -0.193722,-0.871747 -0.663757,-1.739545 -0.776197,-2.639069 -0.07908,-0.632638 -0.147793,-2.513616 0,-3.104787 0.274022,-1.096086 0.991162,-2.067251 1.397154,-3.104786 0.887256,-2.267431 1.552393,-4.397992 1.552393,-6.83053 0,-0.465718 0.112953,-0.945342 0,-1.397154 -0.270343,-1.081372 -0.81987,-2.073124 -1.241914,-3.104787 -0.272898,-0.667083 -0.469306,-1.365968 -0.776197,-2.018111 -0.276079,-0.586667 -0.671553,-1.113614 -0.931436,-1.707633 -0.105759,-0.241733 -0.05725,-0.531212 -0.155239,-0.776196 -0.11206,-0.280151 -0.370303,-0.48995 -0.465718,-0.776197 -0.77993,-2.339789 -1.210184,-4.736672 -1.707633,-7.141009 -0.15011,-0.72553 -0.380793,-1.437338 -0.465718,-2.173351 -0.07118,-0.616864 0,-1.241914 0,-1.862871 0,-0.724451 -0.02194,-1.449233 0,-2.173351 0.07458,-2.461181 0.286589,-3.814092 1.086675,-6.054334 0.0579,-0.162108 1.330933,-1.951889 1.552394,-2.17335 0.0999,-0.09991 2.421112,-1.997206 2.483829,-2.018112 0.453988,-0.151329 1.227044,0 1.707632,0 0.03695,0 0.862458,-0.06898 0.931436,0 0.09177,0.09177 0.268593,0.692425 0.310479,0.776197 0.288255,0.576511 0.616436,1.068588 0.776197,1.707633 0.09002,0.360066 0,0.872303 0,1.241914 0,1.155119 -0.02828,2.272627 -0.15524,3.415265 -0.06389,0.575005 -0.262433,1.131089 -0.310478,1.707633 -0.181816,2.181784 -0.08645,5.367623 0.310478,7.451488 0.159686,0.838351 0.461272,1.645477 0.620958,2.483829 0.127352,0.668597 0.152833,1.356002 0.310478,2.018111 0.102405,0.430099 0.325907,0.822481 0.465718,1.241915 0.373149,1.119446 0.541623,2.301512 0.931436,3.415265 0.628433,1.795523 0.679766,1.359532 1.397154,2.794308 0.383064,0.766127 0.768559,1.533297 1.086676,2.32859 0.121546,0.303865 0.138955,0.652711 0.310478,0.931436 0.250036,0.406308 0.629332,0.717436 0.931436,1.086675 0.395774,0.483723 0.453438,0.778436 1.086675,1.552393 0.231704,0.283193 0.553929,0.485539 0.776197,0.776197 1.201748,1.571516 1.977169,3.190082 2.32859,5.122898 0.429424,2.361835 -0.732396,5.351735 -1.552393,7.606727 -0.223687,0.615138 -0.492591,1.221036 -0.620958,1.862872 -0.193628,0.968141 -0.295172,3.747617 -0.155239,4.657179 0.09733,0.632626 0.34019,1.235234 0.465718,1.862872 0.20137,1.006848 0.236522,2.269425 1.086675,2.949547 0.794153,0.635323 -0.155047,-0.232762 0.620958,0.15524 0.392356,0.196178 0.45031,0.501388 1.086675,0.310478 1.538049,-0.461414 2.523073,-1.395699 3.725744,-2.483829 2.417207,-2.186996 3.260026,-4.159876 3.260026,-7.296248 0,-0.569211 0.08444,-1.144719 0,-1.707633 -0.218331,-1.455536 -0.508194,-2.899487 -0.776197,-4.346701 -0.134909,-0.72851 -0.407786,-1.434722 -0.465718,-2.17335 -0.149761,-1.909454 -0.116941,-3.828921 -0.155239,-5.743856 -0.01345,-0.672569 -0.09192,-1.351716 0,-2.018111 0.290984,-2.109633 1.354714,-5.103911 2.483829,-6.985769 1.691832,-2.81972 3.104786,-4.206189 3.104786,-7.761967 0,-0.413971 0.100403,-0.840303 0,-1.241914 -0.163154,-0.652619 -0.514084,-1.243334 -0.776196,-1.862872 -0.672039,-1.588455 -0.865857,-2.210713 -1.707633,-3.570505 -1.511902,-2.442304 -3.270807,-4.718476 -4.812419,-7.141009 -0.948678,-1.490779 -2.426676,-3.378197 -2.173351,-5.278137 0.430335,-3.227506 3.452281,-4.798851 5.899095,-6.364812 0.471439,-0.301721 0.902477,-0.669549 1.397154,-0.931436 1.488184,-0.787862 4.690343,-1.629132 6.36481,-0.931436 0.77018,0.320907 2.60265,2.100995 2.79431,2.32859 0.29813,0.354027 0.38775,0.842128 0.62096,1.241914 0.13037,0.223488 0.36063,0.384525 0.46572,0.620958 0.19583,0.440623 0.15523,0.934805 0.15523,1.397154 0,0.620957 0.1064,1.251097 0,1.862871 -0.10377,0.59672 -0.43731,1.130468 -0.62095,1.707633 -0.17889,0.562226 -0.27915,1.147909 -0.46572,1.707633 -1.1479,3.443712 -0.12381,0.07665 -1.08668,2.483829 -0.26139,0.653487 -0.38671,1.354408 -0.62095,2.018111 -0.18549,0.525553 -0.47432,1.014705 -0.62096,1.552393 -0.52531,1.926139 -0.87099,4.054058 -0.62096,6.054334 0.27695,2.215591 0.86613,4.08548 1.39716,6.209573 0.84161,3.366468 -0.7565,-2.104415 0.46571,2.173351 0.40763,1.426685 0.97998,2.852964 1.08668,4.346701 0.0944,1.32105 0.11031,2.867751 0,4.191462 0.0146,0.74023 -0.24422,1.44455 -0.31048,2.17335 -0.10869,1.195595 -0.23546,2.414024 -0.62096,3.570505 -0.52023,1.560688 -1.35296,3.005355 -2.01811,4.50194 -0.19938,0.448599 -0.29795,0.9358 -0.46572,1.397154 -0.17416,0.47896 -0.506355,0.900562 -0.620953,1.397154 -0.18762,0.813019 -0.246484,1.651901 -0.310479,2.483829 -0.08248,1.07227 0,2.184418 0,3.260026 0,1.914619 0,3.829237 0,5.743855 0,0.79638 0.07922,1.691658 0,2.483829 -0.04747,0.474711 -0.216916,0.92934 -0.310478,1.397154 -0.130997,0.654982 -0.568546,2.767603 -1.086676,3.415266 -0.137146,0.171433 -0.338112,0.287069 -0.465718,0.465718 -0.764196,1.069874 0.07599,0.158506 -0.465718,1.241914 -0.168421,0.336842 -0.452536,0.284115 -0.620957,0.620957 -0.04628,0.09257 0.03273,0.212297 0,0.310479 -0.07949,0.238465 -0.338924,0.120288 -0.465718,0.310479 -0.08611,0.129167 0.109771,0.355947 0,0.465718 -0.07318,0.07318 -0.210968,-0.02843 -0.310479,0 -0.314681,0.08991 -0.632369,0.17756 -0.931436,0.310478 -0.170493,0.07577 -0.29884,0.22704 -0.465717,0.310479 -0.949952,0.474976 -2.005124,0.769703 -2.949548,1.241915 -0.06545,0.03273 -0.08581,0.132097 -0.155239,0.155239 -0.03133,0.01044 -0.569308,-0.05165 -0.620957,0 -0.03659,0.03659 0.04305,0.126536 0,0.155239 -0.136154,0.09077 -0.334809,0.05706 -0.465718,0.15524 -0.09257,0.06942 -0.09106,0.214203 -0.15524,0.310478 0.0155,0.307538 -0.22866,0.07342 -0.310478,0.15524 -0.129113,0.129112 0.241169,0.413735 0.310478,0.465718 0.645472,0.484103 1.294429,1.035312 2.018112,1.397154 1.849553,0.924776 2.819292,3.295675 2.639068,5.278137 -0.158489,1.743376 -0.158107,0.556242 -0.620957,2.639066 -0.0905,0.40726 -0.04063,0.84078 -0.155239,1.24192 -0.09536,0.33377 -0.343834,0.60641 -0.465718,0.93143 -0.189694,0.50585 -0.27178,1.04816 -0.465718,1.5524 -0.08451,0.21973 -0.710919,0.95612 -0.776197,1.08667 -0.09542,0.19083 -0.02196,0.45436 -0.155239,0.62096 -0.102223,0.12778 -0.312501,0.0978 -0.465718,0.15524 -0.260921,0.0978 -0.517465,0.20698 -0.776197,0.31048 -1.179838,0.47193 -3.008888,0.70137 -3.880983,1.70763 -0.441876,0.50986 -0.672455,1.17506 -1.086675,1.70763 -0.3145,0.40436 -0.740527,0.70906 -1.086676,1.08668 -0.815893,0.89006 -1.580021,1.82564 -2.483829,2.63907 -1.115452,1.0039 -2.298623,1.94456 -3.415265,2.94954 -1.354026,1.21863 -2.51829,2.29565 -4.346701,2.79431 -4.563537,1.2446 -0.177396,0.0998 -3.104787,0.46572 -0.473394,0.0592 -0.920075,0.31048 -1.397154,0.31048 -1.224106,0 -2.083385,-0.9432 -3.104786,-1.39716 -0.404016,-0.17956 -0.831415,-0.30151 -1.241915,-0.46571 -0.996194,-0.39848 -2.169821,-0.89372 -3.104786,-1.39716 -0.227807,-0.12266 -0.389541,-0.35001 -0.620958,-0.46572 -0.190831,-0.0954 -0.424852,-0.0712 -0.620957,-0.15524 -0.171489,-0.0735 -0.310479,-0.20698 -0.465718,-0.31047 -0.206986,-0.1035 -0.408251,-0.21932 -0.620957,-0.31048 -0.818776,-0.35091 -1.718239,-0.76342 -2.48383,-1.24192 -0.413971,-0.25873 -0.827943,-0.51746 -1.241914,-0.77619 -0.280975,-0.17561 -0.474557,-0.48385 -0.776197,-0.62096 -2.970796,-1.35036 -0.450355,-0.21273 -2.32859,-0.7762 -1.342953,-0.40288 -0.280855,-0.14043 -1.241914,-0.62096 -0.606128,-0.30306 -1.242324,-0.18636 -1.862872,-0.31047 -0.320918,-0.0642 -0.611956,-0.23949 -0.931436,-0.31048 -0.454628,-0.10103 -0.931436,0 -1.397154,0 -0.813841,0 -1.674603,0.0809 -2.483829,0 -0.262547,-0.0263 -0.513424,-0.13135 -0.776197,-0.15524 -1.727135,-0.15701 -3.543656,0 -5.278137,0 -1.172342,0 -2.417784,-0.0753 -3.570505,0.15524 -1.925016,0.385 -0.566881,0.30632 -2.639068,0.46572 -1.35836,0.10448 0.193327,-0.25941 -2.018111,0.15523 -0.370268,0.0694 -0.713742,0.25721 -1.086676,0.31048 -0.358584,0.0512 -0.726665,-0.04 -1.086675,0 -2.538836,0.2821 -5.016575,0.85643 -7.606727,0.62096 -0.330849,-0.0301 -1.917125,-0.429 -2.018111,-0.46572 -0.175342,-0.0638 -0.290377,-0.24672 -0.465718,-0.31048 -0.401021,-0.14582 -0.842372,-0.16065 -1.241915,-0.31047 -1.577784,-0.59167 -3.548128,-2.13622 -4.812419,-3.26003 -0.496715,-0.44153 -0.739722,-0.77264 -1.086675,-1.39715 -0.07947,-0.14305 -0.06851,-0.32696 -0.15524,-0.46572 -0.175609,-0.28098 -0.456567,-0.48852 -0.620957,-0.7762 -0.05135,-0.0899 0.03273,-0.2123 0,-0.31048 -0.124622,-0.37386 -0.383145,-0.70133 -0.465718,-1.08667 -0.185736,-0.86677 0,-2.97491 0,-3.88099 0,-2.423711 1.369369,-5.346391 2.483829,-7.451484 0.06848,-0.129352 0.235177,-0.184975 0.310479,-0.310479 0.08419,-0.140317 0.07105,-0.3254 0.155239,-0.465718 0.241683,-0.402803 0.74458,-0.646356 1.086676,-0.931436 0.168656,-0.140547 0.275102,-0.356795 0.465718,-0.465718 0.185245,-0.105854 0.41855,-0.08777 0.620957,-0.155239 0.584823,-0.194941 1.122809,-0.581256 1.707633,-0.776197 1.322438,-0.440812 0.499355,-0.02698 1.397154,-0.155239 0.422423,-0.06035 0.819491,-0.250132 1.241914,-0.310479 1.417405,-0.202486 2.935114,0.235265 4.346701,0 0.114134,-0.01902 0.197017,-0.132547 0.310479,-0.155239 0.64683,-0.129366 0.258732,0.08624 0.776197,0 0.54315,-0.09052 1.041703,-0.295488 1.552393,-0.465718 0.461886,-0.153962 1.741434,-0.189041 2.018111,-0.465718 0.336722,-0.336722 -0.546071,-0.330923 -0.620957,-0.465718 -0.214714,-0.386484 -0.310479,-0.827943 -0.465718,-1.241914 z"
       id="path9" />
  </g>
</svg>
