<?xml version="1.0" encoding="UTF-8" standalone="no"?>
<!-- Created with Inkscape (http://www.inkscape.org/) -->

<svg
   width="120"
   height="120"
   viewBox="0 0 120 120"
   version="1.1"
   id="svg1"
   sodipodi:docname="fish2.svg"
   inkscape:version="1.4.2 (f4327f4, 2025-05-13)"
   xmlns:inkscape="http://www.inkscape.org/namespaces/inkscape"
   xmlns:sodipodi="http://sodipodi.sourceforge.net/DTD/sodipodi-0.dtd"
   xmlns="http://www.w3.org/2000/svg"
   xmlns:svg="http://www.w3.org/2000/svg">
  <sodipodi:namedview
     id="namedview1"
     pagecolor="#ffffff"
     bordercolor="#000000"
     borderopacity="0.25"
     inkscape:showpageshadow="2"
     inkscape:pageopacity="0.0"
     inkscape:pagecheckerboard="0"
     inkscape:deskcolor="#d1d1d1"
     inkscape:document-units="px"
     inkscape:zoom="6.4416667"
     inkscape:cx="63.492885"
     inkscape:cy="61.862872"
     inkscape:window-width="1920"
     inkscape:window-height="991"
     inkscape:window-x="-9"
     inkscape:window-y="-9"
     inkscape:window-maximized="1"
     inkscape:current-layer="layer1" />
  <defs
     id="defs1" />
  <g
     inkscape:label="Слой 1"
     inkscape:groupmode="layer"
     id="layer1">
    <path
       style="fill:#00b837;fill-opacity:0;stroke:#000000;stroke-opacity:1"
       d="m 33.686934,59.146184 c -0.147172,0 -0.492034,-0.06446 -0.620957,0 -0.06546,0.03273 -0.08348,0.140889 -0.15524,0.155239 -0.202966,0.04059 -0.421935,-0.05686 -0.620957,0 -0.590101,0.1686 -1.766443,1.11608 -2.32859,1.397154 -0.04628,0.02314 -0.118649,-0.03659 -0.155239,0 -0.08182,0.08182 -0.06267,0.241049 -0.155239,0.310479 -0.293001,0.21975 -0.691215,0.291406 -1.086676,0.620957 -0.618598,0.515498 -0.681235,0.885783 -1.397154,1.397154 -0.425191,0.303708 -0.866742,0.556264 -1.241914,0.931436 -0.06266,0.06266 -0.509508,0.732407 -0.620958,0.620957 -0.121354,-0.121354 0.13503,-0.270058 0.15524,-0.310478 0.198591,-0.397183 0.181384,-0.854632 0.310478,-1.241915 0.07374,-0.22122 0.310479,-0.32719 0.310479,-0.620957 0,-0.456738 -0.1099,-1.112793 0,-1.552394 0.353376,-1.413505 0.3456,-0.45658 0.465718,-2.018111 0.23624,-3.071122 -0.260224,-6.209207 -1.552393,-9.003881 0.466004,0.513476 1.452813,0.399331 2.018111,0.776197 0.171254,0.114169 0.282324,0.374021 0.465718,0.465718 0.165589,0.08279 0.455369,-0.0828 0.620957,0 0.103493,0.05175 0.05175,0.258732 0.15524,0.310478 0.191693,0.09585 0.429263,0.214632 0.620957,0.310479 0.33707,0.168535 0.335278,0.555737 0.776197,0.776197 0.09257,0.04628 0.224367,-0.05741 0.310478,0 0.09628,0.06418 0.08581,0.217911 0.155239,0.310478 0.396053,0.52807 1.327925,1.28492 1.862872,1.552394 0.13091,0.06545 0.17957,0.245024 0.310479,0.310478 0.249244,0.124622 0.508255,0.233924 0.776197,0.310479 0.149266,0.04265 0.355947,-0.109771 0.465718,0 0.03659,0.03659 0,0.103493 0,0.155239 -0.169723,-3.28529 -0.855706,-6.883549 0.310478,-10.090556 1.151284,-3.16603 3.528681,-5.635753 5.743855,-8.072445 0.824875,-0.907362 1.098216,-1.509439 2.173351,-2.32859 0.989884,-0.754197 4.233703,-2.238729 4.967659,-2.639069 0.693427,-0.378233 1.316211,-0.879644 2.018111,-1.241914 3.468002,-1.789937 7.104854,-2.913638 10.866753,-3.880983 2.055269,-0.528498 4.241568,-1.097148 6.364812,-1.241915 1.652857,-0.112695 3.311412,-0.116722 4.967659,-0.155239 1.189846,-0.02767 2.396529,-0.195663 3.570504,0 0.95355,0.158925 1.857897,0.536091 2.794308,0.776196 3.109214,0.797235 5.250398,1.201758 8.227684,2.639069 0.263612,0.127261 0.394403,0.435595 0.620958,0.620957 2.405092,1.967803 4.775368,3.709675 6.675291,6.209573 1.945016,2.559232 4.140284,5.088386 5.433376,8.072445 0.370917,0.855962 0.624174,1.758251 0.931436,2.639069 1.24999,3.583291 2.41584,7.126768 3.10479,10.866753 0.61051,3.314227 0.83774,6.575141 0.62095,9.935317 -0.0468,0.724789 -0.0214,1.459494 -0.15524,2.17335 -0.60405,3.221615 -1.92805,6.443721 -3.104782,9.469599 -0.278818,0.71696 -0.447715,1.477743 -0.776197,2.173351 -1.48394,3.142462 -1.661976,3.083917 -3.415265,5.588616 -0.576177,0.82311 -1.057592,1.71771 -1.707632,2.483829 -2.612251,3.078723 -5.474354,5.477814 -9.469599,6.520052 -1.056244,0.275541 -2.169866,0.254573 -3.260026,0.310478 -3.483169,0.178624 -6.96186,-0.105081 -10.401035,-0.620957 -5.731147,-0.859672 -5.248818,-0.75993 -10.245796,-1.707633 -2.984509,-0.566027 -6.997788,-1.042941 -9.624838,-2.794308 -3.410493,-2.273662 -6.816192,-4.577878 -9.469599,-7.761966 -2.097149,-2.516579 -0.476797,-0.64127 -1.397154,-2.32859 -0.772642,-1.41651 -1.823876,-2.706568 -2.483829,-4.191462 -0.651152,-1.465092 -1.05469,-3.03282 -1.707633,-4.50194 -0.394859,-0.888433 -0.892905,-1.731645 -1.241914,-2.639069 -0.135235,-0.351609 -0.159483,-0.74154 -0.310479,-1.086675 -0.213541,-0.488094 -0.537938,-0.920637 -0.776197,-1.397154 -0.594244,-1.188489 -0.980016,-2.47433 -1.397154,-3.725744 -0.267231,-0.801695 -0.940669,-2.14565 -0.620957,-3.104786 0.129015,-0.387046 1.013622,-0.219162 1.241915,-0.310479 0.387354,-0.154942 0.72445,-0.413971 1.086675,-0.620957 z"
       id="path36" />
    <path
       style="fill:#00b837;fill-opacity:0;stroke:#000000;stroke-opacity:1"
       d="m 67.994825,39.430789 c -0.184459,4.242573 -0.155239,2.379212 -0.155239,5.588616 0,0.362225 -0.134527,0.750358 0,1.086675 0.06929,0.17323 0.22704,0.298841 0.310479,0.465718 0.07318,0.146361 0.03953,0.35001 0.155239,0.465718 0.163637,0.163637 0.428407,0.182112 0.620957,0.310479 0.275691,0.183794 0.495222,0.445348 0.776197,0.620957 1.161954,0.726221 2.067799,1.071779 3.260026,1.707633 0.266233,0.141991 0.489949,0.370302 0.776196,0.465718 0.923738,0.307912 1.988064,0.310478 2.949548,0.310478 0.258732,0 0.529242,0.07717 0.776196,0 2.108936,-0.659042 4.912939,-2.376173 6.209573,-4.191461 0.16197,-0.226758 0.172223,-0.53425 0.310479,-0.776197 0.304853,-0.533493 0.399851,-0.05166 0.465718,-0.776197 0.03748,-0.412271 0,-0.827943 0,-1.241914 0,-0.876779 -0.06146,-1.675309 -0.465718,-2.48383 -0.403134,-0.806268 -1.324571,-1.497955 -2.018111,-2.018111 -0.979707,-0.73478 -1.795545,-1.057821 -2.949547,-1.552393 -0.596901,-0.255815 -0.73519,-0.440422 -1.397154,-0.620957 -0.847416,-0.231114 -4.094965,-0.302087 -5.122898,-0.15524 -0.501962,0.07171 -0.878972,0.391692 -1.397154,0.465718 -0.153679,0.02195 -0.320363,-0.05451 -0.465718,0 -0.28252,0.105945 -0.500471,0.343174 -0.776197,0.465718 -0.194967,0.08665 -0.421186,0.08033 -0.620957,0.15524 -0.424058,0.159021 -0.810578,0.477178 -1.241915,0.620957 -0.04909,0.01636 -0.155239,-0.05175 -0.155239,0 0,0.365902 0.103493,0.72445 0.155239,1.086675 z"
       id="path37" />
    <path
       style="fill:#00b837;fill-opacity:0;stroke:#000000;stroke-opacity:1"
       d="m 74.359638,42.535576 c -0.339722,0.608725 0.64991,0.863054 0.776196,1.241914 0.03273,0.09818 -0.04628,0.217912 0,0.310479 0.02314,0.04628 0.112184,-0.0287 0.15524,0 0.573555,0.38237 0.821437,0.776197 1.552393,0.776197 0.103493,0 0.237298,0.07318 0.310479,0 0.318726,-0.318727 -0.476179,-1.669834 -0.620958,-1.862872 -0.03105,-0.0414 -0.118649,0.03659 -0.155239,0 -0.03659,-0.03659 0.0287,-0.112184 0,-0.15524 -0.0964,-0.144607 -0.593603,-0.52966 -0.776197,-0.620957 -0.381663,-0.190831 -0.83162,0.193252 -1.241914,0.310479 z"
       id="path38" />
    <path
       style="fill:#00b837;fill-opacity:0;stroke:#000000;stroke-opacity:1"
       d="m 100.12937,48.43467 c -0.140664,0.14066 -0.620469,0.465226 -0.620961,0.465718 -0.03659,0.03659 0.02314,0.108959 0,0.155239 -0.0917,0.183395 -0.351549,0.294464 -0.465718,0.465718 -0.09454,0.14181 -0.13251,0.376738 -0.310479,0.465718 -1.102716,0.551358 -2.486979,1.365476 -3.880983,1.086676 -0.113462,-0.02269 -0.197017,-0.13255 -0.310479,-0.15524 -0.725849,-0.145169 -0.21673,0.202114 -0.931436,-0.155239 -0.282376,-0.141188 -0.512648,-0.462828 -0.776196,-0.620957 -0.140318,-0.08419 -0.33794,-0.05302 -0.465718,-0.15524 -0.571444,-0.457155 -1.034929,-1.034928 -1.552394,-1.552393 -0.982477,-0.982478 -1.502203,-1.586243 -2.17335,-2.794308 -0.09061,-0.163095 -0.251479,-0.288718 -0.310479,-0.465718 -0.04909,-0.147273 0.02552,-0.312591 0,-0.465718 -0.373147,-2.238884 -0.121366,-4.521465 0.15524,-6.83053 0.236555,-0.354833 0.731842,-1.485862 1.397154,-1.707633 0.147272,-0.04909 0.313493,0.03045 0.465717,0 0.226924,-0.04538 0.401416,-0.237298 0.620958,-0.310478 0.392652,-0.130884 2.122215,-0.02557 2.483829,0.155239 0.130909,0.06546 0.188699,0.229292 0.310479,0.310479 0.04305,0.0287 0.118649,-0.03659 0.155239,0 0.08182,0.08182 0.103493,0.206985 0.155239,0.310478 0.103493,0.15524 0.178551,0.33379 0.310479,0.465718 0.03659,0.03659 0.103493,0 0.155239,0 0.05175,0.05175 0.114646,0.09435 0.15524,0.15524 0.240802,0.361204 0.06968,0.259753 0.310478,0.620957 0.15524,0.232859 0.310479,0.155239 0.465718,0.465718 0.04628,0.09257 0,0.206986 0,0.310478 0.103493,0.206986 0.187828,0.424716 0.310479,0.620958 0.417826,0.668522 1.038352,1.71174 1.552393,2.32859 0.140547,0.168656 0.333993,0.290084 0.465718,0.465718 0.09812,0.13083 0.189325,0.459419 0.310479,0.620957 0.249255,0.33234 0.595929,0.570901 0.776196,0.931436 0.02314,0.04628 0,0.103493 0,0.155239 0.05175,0.103493 0.09106,0.214204 0.15524,0.310479 -0.0155,0.307538 0.22866,0.07342 0.310478,0.155239 0.109771,0.109771 -0.05765,0.321582 0,0.465718 0.06929,0.17323 0.241187,0.292488 0.310479,0.465718 0.03844,0.09609 -0.01701,0.208394 0,0.310479 0.08524,0.511419 0.167509,0.657765 0.310479,1.086675 0.07024,0.210734 -0.02388,0.561307 0,0.776197 0.0404,0.363665 0.103493,0.72445 0.155243,1.086675 z"
       id="path39" />
    <path
       style="fill:#00b837;fill-opacity:0;stroke:#000000;stroke-opacity:1"
       d="m 93.143596,42.380336 c -0.847377,0.592399 -0.931436,1.088175 -0.931436,2.018112 0,1.09359 -0.101376,0.573444 0.310479,1.397154 0.02314,0.04628 -0.03659,0.118649 0,0.155239 0.808182,0.808182 2.265295,0.655602 2.639069,-0.465718 0.114545,-0.343637 0,-0.72445 0,-1.086675 0,-0.379455 0.12001,-0.966666 -0.15524,-1.241915 C 94.566099,42.716164 94.65754,43.00628 94.230272,42.846054 93.861274,42.70768 93.505821,42.535576 93.143596,42.380336 Z"
       id="path40" />
    <path
       style="fill:#00b837;fill-opacity:0;stroke:#000000;stroke-opacity:1"
       d="m 86.313066,59.611902 c -0.984529,-0.08264 -2.209717,0.209789 -2.794308,1.086675 -0.584979,0.877468 0.52605,1.537575 1.086675,2.018111 0.473754,0.406075 0.970037,0.992333 1.552394,1.241915 0.284201,0.1218 1.561751,0.121781 1.862872,0.155239 0.962741,0.106971 2.592236,0.503184 3.415265,-0.155239 0.14569,-0.116552 0.17855,-0.33379 0.310478,-0.465718 0.495759,-0.495759 0.67658,-0.477344 0.931436,-1.241915 0.655868,-1.967604 -3.01316,-2.483829 -4.191461,-2.483829 -0.255636,0 -0.707911,0.07451 -0.931436,0 -0.04909,-0.01636 0.05135,-0.148821 0,-0.155239 -0.410775,-0.05135 -0.827943,0 -1.241915,0 z"
       id="path41" />
    <path
       style="fill:#00b837;fill-opacity:0;stroke:#000000;stroke-opacity:1"
       d="m 50.76326,62.40621 c -0.672704,0 -1.345407,0 -2.018111,0 -0.413972,0 -0.834621,0.07405 -1.241915,0 -0.91935,-0.167155 -0.608615,-0.310479 -1.552393,-0.310479 -0.155239,0 -0.310479,0 -0.465718,0 -0.05175,0 -0.155239,-0.05175 -0.155239,0 0,0.155239 0.312038,-0.02195 0.465718,0 0.511152,0.07302 1.428324,0.305621 1.862871,0.465718 1.73032,0.637486 3.092717,1.58985 4.65718,2.483829 0.44387,0.25364 1.241915,0.278279 1.241915,0.931436"
       id="path42" />
    <path
       style="fill:#00b837;fill-opacity:0;stroke:#000000;stroke-opacity:1"
       d="m 50.297542,29.495472 c -0.05175,-0.983182 -0.1174,-1.965731 -0.155239,-2.949547 -0.0041,-0.107383 -0.118916,-1.588717 0,-1.707633 0.191463,-0.191463 0.979961,0.694853 1.707632,1.086676 0.346984,0.186837 0.751046,0.259177 1.086676,0.465718 0.918584,0.565283 1.008049,0.892123 2.018111,1.397154 0.261818,0.130909 0.36995,0.470353 0.620957,0.620957 0.08874,0.05325 0.206986,0 0.310479,0"
       id="path43" />
    <path
       style="fill:#00b837;fill-opacity:0;stroke:#000000;stroke-opacity:1"
       d="m 53.247089,35.239327 c -0.931436,0.15524 -1.876917,0.241964 -2.794308,0.465718 -1.190168,0.362225 -2.380336,0.72445 -3.570504,1.086676 0,0.05175 0.03659,0.118649 0,0.155239 -0.06767,0.06767 -0.747707,0.183729 -0.465718,0.465718 0.07318,0.07318 0.217912,-0.04628 0.310479,0 0.166877,0.08344 0.291022,0.244968 0.465717,0.310479 0.399543,0.149828 0.840894,0.164652 1.241915,0.310478 1.350975,0.491264 2.642799,0.777026 4.036223,1.086675 0.112953,0.0251 0.197017,0.132547 0.310478,0.15524 0.152225,0.03045 0.313494,-0.03045 0.465718,0 0.586776,0.117355 0.211089,0.310478 1.086676,0.310478"
       id="path44" />
    <path
       style="fill:#00b837;fill-opacity:0;stroke:#000000;stroke-opacity:1"
       d="m 36.94696,41.293661 c -0.72445,-1.500647 -1.470594,-2.991013 -2.173351,-4.50194 -0.332399,-0.714658 -0.638714,-1.441546 -0.931436,-2.173351 -0.03844,-0.09609 -0.07318,-0.237298 0,-0.310479 0.245455,-0.245455 0.63858,0.279355 0.931436,0.465718 0.393942,0.25069 1.121795,0.596526 1.552394,0.931436 0.319018,0.248126 0.59516,0.552013 0.931436,0.776197 0.372604,0.248403 0.86931,0.372555 1.241914,0.620957 0.413972,0.275981 -0.622034,0.05139 0.155239,0.310479 0.09818,0.03273 0.212297,-0.03273 0.310479,0 0.355076,0.118358 -0.04899,0.310479 0.310479,0.310479"
       id="path45" />
    <path
       style="fill:#00b837;fill-opacity:0;stroke:#000000;stroke-opacity:1"
       d="m 54.489004,76.532988 c -0.413972,1.293661 -0.834666,2.585191 -1.241915,3.880984 -0.304377,0.968473 -1.092617,2.954498 0.776197,1.397153 0.393532,-0.327943 0.682319,-0.772175 1.086675,-1.086675 0.997182,-0.775586 2.118322,-1.384178 3.104787,-2.17335 0.571444,-0.457155 1.008446,-1.062842 1.552393,-1.552394 0.492565,-0.443308 1.062051,-0.796149 1.552393,-1.241914 0.08562,-0.07783 0.07342,-0.228661 0.15524,-0.310479 0.435244,-0.435245 0.931436,-0.15433 0.931436,-0.776197"
       id="path46" />
    <path
       style="fill:#00b837;fill-opacity:0;stroke:#000000;stroke-opacity:1"
       d="m 72.652005,61.940492 c -3.94124,0 -1.022856,0.117088 -4.65718,-0.310479 -0.156814,-0.01845 -1.119157,0.122757 -1.241914,0 -0.03659,-0.03659 0,-0.103493 0,-0.155239 -0.103493,0 -0.217912,0.04628 -0.310479,0 -0.09257,-0.04628 0.07318,-0.237299 0,-0.310479 -0.03659,-0.03659 -0.118649,0.03659 -0.155239,0 -0.275325,-0.275325 -0.443604,-0.665361 -0.776197,-0.931436 -1.980536,-1.584429 -0.649653,-0.494414 -1.552393,-1.397154 -0.112583,-0.112583 -0.738336,-0.658818 -0.776197,-0.620957 -0.231417,0.231417 0.246295,0.610518 0.310479,0.931436 0.477934,2.389668 -0.329447,-0.125041 0.155239,1.086675 0.32159,0.803975 0.352553,1.678615 0.620958,2.483829 0.059,0.177 0.244967,0.291023 0.310478,0.465718 0.264096,0.704257 0.38718,1.782498 0.620957,2.483829 0.109771,0.329313 0.397641,0.591052 0.465718,0.931436 0.06657,0.332863 0.0493,0.613609 0.15524,0.931436 0.132914,0.398742 0.51912,0.679327 0.620957,1.086676 0.08279,0.331172 0.0701,0.630965 0.310479,0.931436 0.525942,0.657427 0.378917,0.211436 0.620957,0.776196 0.555057,1.295132 0.06423,0.529944 0.620957,1.086676 0.02985,0.02985 0,2.899114 0,2.949547 0,0.465718 0,0.931436 0,1.397154 0,0.258732 0,0.517464 0,0.776196 0,0.05175 -0.05175,0.15524 0,0.15524 0.07844,0 -0.08838,-0.644776 0,-1.086676 0.09554,-0.477711 0.398018,-1.106513 0.620958,-1.552393 0.286198,-0.572397 0.624217,-0.72165 1.086675,-1.241914 0.508873,-0.572482 0.855944,-1.321663 1.397154,-1.862872 0.182951,-0.182952 0.438006,-0.282767 0.620957,-0.465718 0.411775,-0.411775 1.155314,-1.431474 1.707633,-1.707633 0.157951,-0.07897 0.653123,0.123073 0.776196,0 0.165893,-0.165893 -0.220683,-0.310479 0.15524,-0.310479"
       id="path47" />
    <path
       style="fill:#00b837;fill-opacity:0;stroke:#000000;stroke-opacity:1"
       d="m 79.948254,85.38163 c 0,0.620957 -0.07051,1.245931 0,1.862872 0.137168,1.20022 0.408596,2.381284 0.620957,3.570504 0.09711,0.543816 0.104364,1.518477 0.620957,1.862872 0.694136,0.462758 1.462913,-1.413201 1.552393,-1.552393 0.792158,-1.232245 1.589579,-2.458867 2.32859,-3.725744 0.394045,-0.675505 0.544211,-1.786125 1.086676,-2.32859"
       id="path48" />
    <path
       style="fill:#00b837;fill-opacity:0;stroke:#000000;stroke-opacity:1"
       d="m 62.095731,94.230272 c 0.343115,6.519198 0.310479,3.930008 0.310479,7.761968 0,0.10349 -0.07318,0.2373 0,0.31048 0.323523,0.32352 1.535042,-0.97965 1.862872,-1.24192 0.864751,-0.6918 1.75313,-1.353656 2.639068,-2.018109 0.372574,-0.279431 1.117723,-0.683053 1.397154,-0.931436 0.193379,-0.171892 0.266954,-0.455321 0.465718,-0.620957 0.125709,-0.104758 0.323642,-0.07405 0.465718,-0.15524 0.224642,-0.128367 0.396315,-0.337351 0.620957,-0.465718 0.276391,-0.157937 0.530851,-0.106024 0.776197,-0.310478 2.685821,-2.238184 -1.143913,0.659115 1.241915,-0.931436 0.121779,-0.08119 0.179569,-0.245024 0.310478,-0.310479 0.09257,-0.04628 0.206986,0 0.310479,0 0.103493,-0.05175 0.206986,-0.103493 0.310479,-0.155239"
       id="path49" />
    <path
       style="fill:#00b837;fill-opacity:0;stroke:#000000;stroke-opacity:1"
       d="m 39.430789,81.190168 c 0.155239,1.500647 0.340431,2.998497 0.465718,4.501941 0.09705,1.164566 0,2.402376 0,3.570504 0,0.01733 -0.04142,1.065965 0,1.086675 0.758036,0.379018 1.42612,-0.578866 2.018111,-0.776196 0.298609,-0.09954 0.62995,-0.06479 0.931436,-0.155239 0.221658,-0.0665 0.39645,-0.254352 0.620958,-0.310479 0.200805,-0.0502 0.416051,0.02927 0.620957,0 0.323984,-0.04628 0.610518,-0.246295 0.931436,-0.310479 0.446978,-0.0894 2.794308,0.306552 2.794308,-0.310478"
       id="path50" />
    <path
       style="fill:#00b837;fill-opacity:0;stroke:#000000;stroke-opacity:1"
       d="m 33.065977,65.821475 c 0,2.887456 0.0264,-0.128541 -0.620958,6.83053 -0.04678,0.502859 0,1.044935 0,1.552393 0,0.05175 -0.03659,-0.118649 0,-0.155239 0.03659,-0.03659 0.108956,0.02314 0.15524,0 0.373149,-0.186574 0.75292,-0.370641 1.086675,-0.620957 0.0414,-0.03105 -0.04975,-0.141024 0,-0.15524 0.768646,-0.219613 1.39678,-0.310478 2.173351,-0.310478"
       id="path51" />
    <path
       style="fill:#00b837;fill-opacity:0;stroke:#000000;stroke-opacity:1"
       d="m 42.069858,54.489004 c 0,-2.360395 -0.11013,-4.745467 0.776196,-6.98577 0.569211,-0.155239 1.119132,-0.423682 1.707633,-0.465718 0.1861,-0.01329 0.298841,0.22704 0.465718,0.310479 0.490829,0.245414 0.912934,0.189021 1.397154,0.465718 0.51714,0.295508 0.901455,0.776196 1.397154,0.776196"
       id="path52" />
    <path
       style="fill:#00b837;fill-opacity:0;stroke:#000000;stroke-opacity:1"
       d="m 40.827943,68.305304 c -1.60414,0.776197 -3.1931,1.584579 -4.812419,2.32859 -2.403019,0.801006 0.0789,-0.117069 -1.397154,0.620957 -0.09257,0.04628 -0.310479,-0.103493 -0.310479,0 0,0.05175 0.118649,-0.03659 0.15524,0 0.03659,0.03659 -0.03659,0.118649 0,0.15524 0.03659,0.03659 0.108956,-0.02314 0.155239,0 0.394393,0.197196 -0.158984,0.185538 0.465718,0.310478 0.152225,0.03045 0.316452,-0.04265 0.465718,0 0.222513,0.06358 0.403022,0.232645 0.620957,0.310479 0.508775,0.181705 1.039869,0.294876 1.552394,0.465718 1.024997,0.341666 1.953884,0.843649 2.949547,1.241914 0.214865,0.08595 0.396449,0.254352 0.620957,0.310479 0.100403,0.0251 0.224367,-0.05741 0.310479,0 0.395569,0.263713 0.0023,0.310479 0.465718,0.310479"
       id="path53" />
    <path
       style="fill:#00b837;fill-opacity:0;stroke:#000000;stroke-opacity:1"
       d="m 63.337646,26.701164 c 0.517464,-0.72445 1.018225,-1.461127 1.552393,-2.17335 -0.132837,-0.720218 0.33379,-0.178551 0.465718,-0.310479 0.07318,-0.07318 -0.07318,-0.237298 0,-0.310479 0.08182,-0.08182 0.241053,-0.06267 0.310478,-0.155239 0.09818,-0.130909 0.06447,-0.329564 0.15524,-0.465718 0.0287,-0.04306 0.103493,0 0.155239,0 0.05175,-0.05175 0.122512,-0.08978 0.155239,-0.155239 0.02314,-0.04628 -0.03659,-0.118649 0,-0.15524 0.188291,-0.18829 1.552394,2.634873 1.552394,2.949548"
       id="path54" />
    <path
       style="fill:#00b837;fill-opacity:0;stroke:#000000;stroke-opacity:1"
       d="m 78.706339,31.047865 c -0.627934,-1.443141 -1.483987,-2.657496 -2.173351,-4.036222 -0.289964,-0.57993 -0.745125,-1.086596 -0.931436,-1.707633 -0.09045,-0.301486 -0.07242,-0.627765 -0.155239,-0.931436 -0.747062,-2.739229 0.09001,0.653999 -0.620957,-1.241914 -0.09265,-0.247056 -0.0513,-0.533675 -0.15524,-0.776197 -0.115308,-0.269054 -0.470353,-0.36995 -0.620957,-0.620957 -0.08419,-0.140317 -0.08206,-0.319357 -0.155239,-0.465718 -0.09818,-0.196364 -0.343938,-0.283049 -0.465718,-0.465718 -0.0287,-0.04306 0,-0.103493 0,-0.155239 -0.05175,-0.103493 -0.07342,-0.228661 -0.15524,-0.310479 -0.20743,-0.207431 -0.771996,-0.306278 -0.931435,-0.465718 -0.03659,-0.03659 0.03659,-0.118649 0,-0.155239 -0.09375,-0.09375 -0.784219,0 -0.931436,0 -0.18756,0 -0.739893,-0.173392 -0.776197,-0.15524 -0.166877,0.08344 -0.310479,0.206986 -0.465718,0.310479 -0.206986,0.05175 -0.424852,0.07119 -0.620957,0.155239 -0.171489,0.07349 -0.291023,0.244968 -0.465718,0.310479 -0.247057,0.09265 -0.531213,0.05725 -0.776197,0.155239 -0.28015,0.11206 -0.500471,0.343174 -0.776197,0.465718 -0.194967,0.08665 -0.41855,0.08777 -0.620957,0.15524 -0.422976,0.140992 -0.951376,0.509512 -1.397154,0.620957 -0.150604,0.03765 -0.326868,-0.06942 -0.465718,0 -0.376573,0.188286 -0.855741,0.331327 -1.241914,0.620957 -0.865067,0.6488 -0.986175,1.168784 -1.552394,2.018111 -0.12178,0.18267 -0.343938,0.283049 -0.465718,0.465718 -0.0041,0.0062 -0.831528,1.352578 -0.931436,1.552394 -0.02314,0.04628 -0.04628,0.132097 0,0.155239 0.09257,0.04628 0.208996,-0.0203 0.310479,0 0.24336,0.04867 1.142641,0.426008 1.241915,0.465718 0.242589,0.09704 1.148525,0.434486 1.397154,0.620957 0.234177,0.175634 0.382759,0.450816 0.620957,0.620958 0.133156,0.09511 0.332561,0.06013 0.465718,0.155239 0.555243,0.396603 1.090598,1.09452 1.397154,1.707632 0.163887,0.327775 0.03283,1.580768 -0.15524,1.862872 -0.0287,0.04306 -0.118649,-0.03659 -0.155239,0 -0.253939,0.253939 0.277482,0.465718 -0.310479,0.465718"
       id="path55" />
  </g>
</svg>
