<?xml version="1.0" encoding="UTF-8" standalone="no"?>
<!-- Created with Inkscape (http://www.inkscape.org/) -->

<svg
   width="120"
   height="120"
   viewBox="0 0 120 120"
   version="1.1"
   id="svg1"
   sodipodi:docname="fish3.svg"
   inkscape:version="1.4.2 (f4327f4, 2025-05-13)"
   xmlns:inkscape="http://www.inkscape.org/namespaces/inkscape"
   xmlns:sodipodi="http://sodipodi.sourceforge.net/DTD/sodipodi-0.dtd"
   xmlns="http://www.w3.org/2000/svg"
   xmlns:svg="http://www.w3.org/2000/svg">
  <sodipodi:namedview
     id="namedview1"
     pagecolor="#ffffff"
     bordercolor="#000000"
     borderopacity="0.25"
     inkscape:showpageshadow="2"
     inkscape:pageopacity="0.0"
     inkscape:pagecheckerboard="0"
     inkscape:deskcolor="#d1d1d1"
     inkscape:document-units="px"
     inkscape:zoom="6.4416667"
     inkscape:cx="63.492885"
     inkscape:cy="61.862872"
     inkscape:window-width="1920"
     inkscape:window-height="991"
     inkscape:window-x="-9"
     inkscape:window-y="-9"
     inkscape:window-maximized="1"
     inkscape:current-layer="layer1" />
  <defs
     id="defs1" />
  <g
     inkscape:label="Слой 1"
     inkscape:groupmode="layer"
     id="layer1">
    <path
       style="fill:#00b837;fill-opacity:0;stroke:#000000;stroke-width:1.53691;stroke-opacity:1"
       d="m 40.559748,64.10084 c -1.163944,0 -2.505594,-0.182911 -3.642338,0 -1.266019,0.203711 -3.873728,1.432194 -4.856448,2.10988 -0.558878,0.385403 -0.940062,0.96995 -1.456935,1.406586 -0.390042,0.329491 -0.86979,0.563747 -1.214113,0.937724 -0.313555,0.340558 -0.44529,0.807634 -0.728468,1.172156 -0.946418,1.218285 -0.60282,0.156739 -1.456935,1.641017 -0.211682,0.36786 -0.269388,0.806783 -0.485644,1.172154 -0.113591,0.191903 -0.383254,0.271174 -0.485646,0.468863 -0.259339,0.500754 0,1.442316 0,1.406587 0,-0.569815 -0.07319,-1.310225 0,-1.87545 0.167885,-1.296658 0.751079,-2.475288 0.97129,-3.750896 0.157107,-0.910022 0.07301,-1.911542 0.242824,-2.813173 0.165087,-0.876603 0.62656,-1.693216 0.728466,-2.578742 0.246893,-2.145248 0.159286,-6.498457 -0.242822,-8.439518 -0.258814,-1.249351 -0.752702,-2.484693 -0.97129,-3.750897 -0.311925,-1.806877 -0.851678,-3.549948 -0.728468,-5.391915 1.214114,0.859581 2.428225,1.719161 3.642339,2.578742 0.323763,0.390719 0.583925,0.839732 0.971288,1.172154 0.35275,0.30272 0.841569,0.42355 1.214114,0.703294 0.54213,0.407086 0.885477,1.038781 1.456935,1.406586 0.301183,0.19385 0.681706,0.259181 0.971289,0.468862 1.150241,0.832869 2.135018,2.061238 3.156692,3.047604 0.288943,0.278959 2.709558,2.813174 2.91387,2.813174"
       id="path55" />
    <path
       style="fill:#00b837;fill-opacity:0;stroke:#000000;stroke-width:1.53691;stroke-opacity:1"
       d="m 39.588458,64.33527 c 0.323763,0 0.673704,-0.123135 0.97129,0 0.315637,0.130596 0.449029,0.510592 0.728467,0.703294 0.294554,0.203124 0.688632,0.250551 0.971289,0.468862 0.141324,0.109152 0.114843,0.345306 0.242824,0.468862 0.24997,0.241331 0.478497,0.22753 0.728467,0.468862 0.445443,0.430052 0.798413,1.005254 1.214111,1.406586 0.05724,0.05526 0.185589,-0.05526 0.242824,0 0.06913,0.06674 0.208258,0.669925 0.242822,0.703294 0.162513,0.156896 0.323134,-0.156896 0.485645,0 0.01314,0.01269 0.472487,0.69059 0.485644,0.703294 0.05723,0.05526 0.185589,-0.05526 0.242824,0 0.05724,0.05526 -0.03619,0.164537 0,0.23443 0.167317,0.32307 0.569483,0.315372 0.728467,0.468862 0.05723,0.05526 -0.05724,0.179175 0,0.234431 0.193812,0.187114 0.959357,-0.12297 1.214112,0 0.148097,0.07149 0.648246,0.313963 0.728467,0.468863 0.03619,0.06988 -0.05723,0.179175 0,0.23443 0.121412,0.117216 0.607057,-0.117215 0.728467,0 0.05724,0.05526 -0.05723,0.179175 0,0.234432 0.101747,0.09823 0.581304,0.163392 0.728468,0.234431 0.325226,0.156993 0.336462,0.559265 0.485646,0.703293 0.502408,0.485048 -0.01965,-0.741215 0.485645,0.234431 0.03619,0.0699 -0.07239,0.199485 0,0.23443 0.463294,0.223643 0.467922,-0.26865 0.728467,0.234433 0.398127,0.768738 1.272136,1.518621 1.699758,2.34431 0.07238,0.139792 -0.0512,0.320595 0,0.468862 0.035,0.101388 0.479557,1.148648 0.485645,1.172155 0.0997,0.385031 -0.134317,1.017579 0,1.406586 0.03619,0.104853 0.191631,0.135594 0.242822,0.234433 0.16066,0.310216 0.364956,4.802346 0.242822,5.391913 -0.246562,1.190209 -0.671069,2.357079 -0.971289,3.516466 -0.32016,1.236384 -0.06879,1.170853 -0.485646,2.10988 -0.105254,0.237108 -0.90634,1.624628 -0.971289,1.875449 -0.0589,0.227432 0.05889,0.475861 0,0.703294 -0.05553,0.214423 -0.413249,0.259184 -0.485646,0.468858 -0.0512,0.148266 0.0898,0.338826 0,0.468867 -0.100393,0.145393 -0.38525,0.08904 -0.485644,0.234434 -0.08979,0.13003 0.07238,0.329067 0,0.468857 -0.102385,0.197688 -0.36786,0.279338 -0.485645,0.468867 -0.171702,0.276279 -0.0069,0.709892 -0.242823,0.937724 -1.295052,0.62515 0.242823,-0.234433 -0.728467,0.703291 -0.114466,0.110511 -0.371179,-0.110512 -0.485645,0 -0.05724,0.05527 0.05723,0.179178 0,0.234434 -0.206359,0.199223 -0.522108,0.269633 -0.728467,0.468856 -0.20636,0.199234 -0.279287,0.504067 -0.485646,0.703291 -0.528158,0.509911 -1.339036,0.940443 -1.942579,1.406591 -0.735142,-0.57848 -0.417671,0.637672 -0.485645,0.703291 -0.206359,0.199234 -0.506889,0.2855 -0.728468,0.468867 -0.689474,0.570554 -1.243862,1.313294 -1.942581,1.875444 -0.448388,0.36075 -1.044214,0.53927 -1.456934,0.93773 -0.20636,0.19922 -0.235397,0.55833 -0.485644,0.70329 -0.20822,0.12061 -0.511281,-0.10483 -0.728468,0 -0.161881,0.0782 -0.114842,0.34531 -0.242821,0.46886 -0.08095,0.0782 -0.647528,0.15629 -0.728468,0.23443 -0.127981,0.12356 -0.114843,0.34531 -0.242823,0.46887 -0.114467,0.11051 -0.328598,-0.0379 -0.485644,0 -0.248316,0.06 -0.480154,0.17449 -0.728468,0.23442 -0.09589,0.0231 -1.214113,-0.0175 -1.214113,0 0,0.0782 0.161882,0 0.242822,0 0.323764,0 0.647528,0 0.971291,0 0.592681,0 1.380134,0.0905 1.942579,0 0.42995,-0.0692 0.800602,-0.33578 1.214113,-0.46886 2.00584,-0.64551 -0.754738,0.16052 1.699757,-0.23443 0.711726,-0.11453 1.477579,-0.53245 2.185402,-0.70329 0.157049,-0.0379 0.323764,0 0.485645,0 0.485644,-0.0782 0.989856,-0.0841 1.456935,-0.23443 0.07678,-0.0247 -0.07238,-0.19949 0,-0.23443 0.997856,-0.48169 1.763719,-0.26531 2.671046,-0.7033 0.906697,-0.43768 1.693098,-0.93451 2.671049,-1.40658 0.740502,-0.35746 -0.444109,-0.18586 0.728467,-0.46887 0.157049,-0.0379 0.332071,0.0495 0.485645,0 0.329278,-0.10593 1.144272,-0.502047 1.456934,-0.703288 0.190486,-0.122606 0.28088,-0.370023 0.485645,-0.468867 0.228935,-0.110512 0.523703,-0.08619 0.728467,-0.234423 0.144798,-0.104831 0.103782,-0.357007 0.242823,-0.468868 0.782536,-0.629579 2.238015,-1.197554 3.156693,-1.641014 0.03901,-0.01886 1.844415,-1.967724 1.942579,-2.109882 0.627479,-0.908687 1.895469,-1.315621 2.428226,-2.344305 0.372786,-0.719816 0.823775,-1.590621 1.214111,-2.344315 0.18099,-0.349469 0.600489,-0.567057 0.728468,-0.937725 0.0512,-0.148265 -0.03926,-0.317241 0,-0.468861 0.220766,-0.852544 0.816476,-2.045384 1.214113,-2.813173 0.146611,-0.28308 0.515935,-1.098806 0.728468,-1.406587 0.126995,-0.183903 0.413249,-0.259182 0.485643,-0.468863 0.112903,-0.326997 -0.07012,-0.833672 0,-1.172155 0.100393,-0.484626 0.361489,-0.927119 0.485645,-1.406586 0.05039,-0.194558 -0.09197,-0.525703 0,-0.703292 0.0512,-0.09886 0.215062,-0.127213 0.242823,-0.234433 0.0589,-0.227431 -0.07679,-0.480892 0,-0.703293 0.02559,-0.07414 0.206624,0.06988 0.242823,0 0.07239,-0.139792 -0.03927,-0.317241 0,-0.468862 0.232643,-0.898411 0.32794,-1.805371 0.728468,-2.578742 0.270027,-0.521392 -0.333269,-1.627252 0,-2.109879 0.198328,-0.287213 0.604133,-0.108746 0.728467,-0.468864 0.07678,-0.2224 -0.171702,-0.537524 0,-0.703292 0.127981,-0.123558 0.357666,-0.110873 0.485644,-0.234431 0.112246,-0.108362 -0.07329,-0.561749 0,-0.703293 0.315202,-0.60862 0.496662,0.191891 0.728468,-0.703293 0.03926,-0.151621 -0.0898,-0.338823 0,-0.468862 0.100393,-0.145394 0.38525,-0.08904 0.485645,-0.234432 0.485646,-0.703293 -0.242822,-0.23443 0,-0.703293 0.102395,-0.197689 0.383262,-0.271172 0.485646,-0.468861 0.07238,-0.139792 -0.114468,-0.358352 0,-0.468862 0.05723,-0.05526 0.161881,0 0.242821,0 0.08095,-0.07815 0.179327,-0.142481 0.242823,-0.234431 0.08095,-0.156288 0.161881,-0.312576 0.242823,-0.468863 0,-0.156287 -0.0724,-0.329075 0,-0.468863 0.03619,-0.06988 0.185588,0.05526 0.242822,0 0.255958,-0.247111 0.284856,-0.646947 0.485646,-0.937723 0.302051,-0.43742 0.375632,-0.0641 0.728467,-0.234431 0.54832,-0.264686 0.929689,-0.917642 1.456935,-1.172156 0.349866,-0.168888 0.876345,-0.305816 1.214111,-0.468862 0.361978,-0.174734 0.587355,-0.579737 0.971291,-0.703294 0.153571,-0.04942 0.33207,0.04942 0.485644,0 0.195035,-0.06276 1.415041,-0.642623 1.456935,-0.703293 0.08979,-0.130038 -0.134692,-0.38217 0,-0.468862 0.269388,-0.173385 0.701903,0.173386 0.971289,0 0.190487,-0.122606 0.323763,-0.312574 0.485646,-0.468862 0.242821,0 0.503012,0.08706 0.728467,0 0.212562,-0.08209 0.280879,-0.370017 0.485645,-0.468863 0.144796,-0.06988 0.328598,0.03791 0.485644,0 0.175587,-0.04237 0.308173,-0.200162 0.485646,-0.23443 0.317476,-0.0613 0.681707,0.139792 0.971289,0 0.102396,-0.04942 0.134223,-0.199485 0.242824,-0.234431 0.456914,-0.147041 0.998077,-0.01298 1.456934,-0.234432 0.204766,-0.09884 0.28088,-0.370018 0.485645,-0.468861 0.144797,-0.06988 0.332071,0.04942 0.485645,0 0.622112,-0.200205 1.055267,-0.730318 1.699758,-0.937725 0.262118,-0.08436 0.758269,-0.09733 0.971291,-0.234431 0.749534,-0.482421 1.407667,-1.172156 2.428223,-1.172156 0.08095,0 0.185589,0.05526 0.242823,0 0.114466,-0.11051 -0.0724,-0.329073 0,-0.468861 0.165018,-0.318631 0.563451,-0.619094 0.728467,-0.937724 0.186076,-0.359291 1.075387,-2.478243 0.728468,-2.813173 -0.112246,-0.108362 -0.581857,0.07076 -0.728468,0 -0.314435,-0.151786 -0.945368,-0.295891 -1.214111,-0.468863 -0.190487,-0.122606 -0.286875,-0.359203 -0.485646,-0.468862 -0.727571,-0.401387 -1.50663,-0.375635 -2.185402,-0.703294 -0.563353,-0.27194 -1.162951,-0.678596 -1.699758,-0.937724 -0.217187,-0.104853 -0.498105,0.07413 -0.728467,0 -0.1086,-0.03495 -0.134237,-0.199484 -0.242823,-0.23443 -0.307149,-0.09886 -0.664141,0.09884 -0.971289,0 -0.328385,-0.105676 -0.651884,-0.314678 -0.97129,-0.468862 -0.875734,-0.422734 -6.087252,0.452748 -6.799029,-0.234431 -0.244141,-0.235703 0.115609,-1.306183 0,-1.641019 -0.613347,-1.776449 0.08769,0.08466 -0.485646,-0.468861 -0.164754,-0.159061 0.11112,-0.723177 0,-0.937725 -0.256434,-0.495145 -0.126338,-0.712799 -0.242821,-0.937724 -0.102396,-0.197689 -0.413251,-0.25918 -0.485646,-0.468862 -0.192347,-0.5571 0.287446,-0.42578 -0.242822,-0.937724 -0.127981,-0.123559 -0.357667,-0.110874 -0.485646,-0.234431 -0.151334,-0.146104 -0.219448,-0.569153 -0.728467,-0.937724 -0.144796,-0.104853 -0.38525,-0.08904 -0.485645,-0.234431 -0.0898,-0.130038 0.114466,-0.358351 0,-0.468863 -0.114467,-0.11051 -0.371178,0.110512 -0.485644,0 -0.114467,-0.11051 0.0724,-0.329074 0,-0.468862 -0.0147,-0.02842 -0.689151,-0.196474 -0.728467,-0.23443 -0.05723,-0.05526 0.05724,-0.179177 0,-0.234433 -0.12332,-0.119058 -1.108815,-0.601632 -1.214114,-0.703292 -0.05724,-0.05526 0.05723,-0.179175 0,-0.234431 -0.256431,-0.24757 -1.153923,-0.371349 -1.456935,-0.468863 -0.42624,-0.137164 -0.808184,-0.507343 -1.214112,-0.703294 -0.217187,-0.104853 -0.51128,0.104832 -0.728468,0 -0.07238,-0.03495 0.05724,-0.179174 0,-0.23443 -0.05578,-0.05385 -1.201191,-0.931487 -1.214111,-0.937723 -0.144796,-0.06989 -0.332072,0.04942 -0.485646,0 -0.764075,-0.245892 -1.180516,-1.139722 -1.699756,-1.641019 -0.05723,-0.05526 -0.206626,0.06988 -0.242823,0 -0.07238,-0.139793 0.07239,-0.329074 0,-0.468861 -0.03619,-0.0699 -0.18559,0.05526 -0.242823,0 -0.619543,-0.598135 -1.089224,-1.634306 -1.456935,-2.344313 -0.0512,-0.09883 -0.161882,-0.156285 -0.242822,-0.23443 -0.161882,-0.156287 -0.383262,-0.271172 -0.485646,-0.468862 -0.07238,-0.139793 0.03175,-0.315609 0,-0.468861 -0.143763,-0.693965 -0.568142,-0.787448 -0.728467,-1.406587 -0.146689,-0.566476 -0.117345,-1.107654 -0.485644,-1.641017 -0.190486,-0.275855 -0.537983,-0.42744 -0.728467,-0.703294 -0.340222,-0.492697 -0.620951,-1.54616 -0.971291,-2.109879 -0.0589,-0.09476 -0.161882,-0.156288 -0.242822,-0.234432 -0.242822,-0.312574 -0.531925,-0.596174 -0.728467,-0.937724 -0.211683,-0.367859 -0.243863,-0.822014 -0.485646,-1.172156 -0.100393,-0.14538 -0.357666,-0.110873 -0.485644,-0.234431 -0.127982,-0.123558 -0.129765,-0.332417 -0.242824,-0.468862 -0.214521,-0.258886 -0.537982,-0.427438 -0.728467,-0.703293 -0.141981,-0.20561 -0.08925,-0.505603 -0.242822,-0.703294 -0.108601,-0.139792 -0.377051,-0.09464 -0.485646,-0.234431 -0.153571,-0.197689 -0.128356,-0.482269 -0.242822,-0.703292 -0.0512,-0.09886 -0.206624,-0.129584 -0.242822,-0.234431 -0.0512,-0.148264 0.08329,-0.334847 0,-0.468863 -0.202352,-0.325598 -0.94431,-0.824849 -1.214113,-1.172155 -0.552416,-0.711102 -1.144416,-1.395014 -1.699756,-2.109879 -0.108602,-0.139792 -0.114842,-0.345307 -0.242823,-0.468862 -0.550503,-0.53148 -0.534636,0.139838 -0.971291,-0.703294 -0.07238,-0.139792 0.07239,-0.329075 0,-0.468862 -0.436653,-0.843128 -0.420784,-0.171814 -0.971289,-0.703294 -1.240915,-1.198032 1.018149,0.32697 -0.728467,-0.937724 -0.580831,-0.420568 -1.453669,-0.93457 -1.942581,-1.406586 -0.255956,-0.247112 -0.229687,-0.690613 -0.485644,-0.937724 -0.295885,-0.28566 -0.918229,-0.417634 -1.214112,-0.703293 -0.127982,-0.123558 -0.161883,-0.312576 -0.242823,-0.468863 -0.323763,-0.23443 -0.685121,-0.427014 -0.971291,-0.703292 -0.05723,-0.05526 0.05723,-0.179176 0,-0.234431 C 45.645885,10.872305 45.213209,10.868866 44.930552,10.650555 44.22307,10.104128 43.562144,9.4039188 42.74515,9.0095385 42.480513,8.8817968 39.703907,7.6721288 39.345636,7.6029512 38.319377,7.4047927 37.408354,7.3710778 36.431767,6.8996586 35.304449,6.3554781 36.571525,6.879756 35.460476,6.6652259 34.768137,6.5315496 34.20268,6.1272136 33.517897,5.9619344 c -0.45708,-0.1103151 -0.999859,0.1103152 -1.456935,0 -1.420913,-0.3429527 -2.895997,-0.2344315 -4.370806,-0.2344315 -0.647526,0 -1.295052,0 -1.94258,0 -0.161882,0 -0.485644,-0.1562885 -0.485644,0 0,0.078152 0.170426,-0.034947 0.242822,0 0.330035,0.1593149 0.641255,0.5439776 0.97129,0.7032925 0.07238,0.034947 0.185589,-0.055256 0.242823,0 0.127982,0.1235583 0.134222,0.3290747 0.242822,0.4688632 0.343402,0.4420468 0.809408,0.7814357 1.214112,1.1721546 0.998984,0.9644616 1.940443,3.1637878 3.156693,3.7508978 0.494859,0.238878 1.741274,0.743375 2.185403,1.172154 0.127981,0.123559 0.09222,0.371937 0.242821,0.468862 1.154084,0.742802 -0.204132,-0.90037 0.97129,0.234432 0.127981,0.123558 0.114842,0.345307 0.242824,0.468862 0.06853,0.06616 1.4047,0.747818 1.699756,0.937724 0.728467,0.468862 -0.485645,0 0.728467,0.703293 0.219482,0.127138 0.515498,0.09735 0.728468,0.234432 0.06735,0.04334 -0.04489,0.169411 0,0.234431 0.873308,1.264693 0.07558,-0.161463 0.97129,0.703293 0.12798,0.123559 0.114842,0.345305 0.242823,0.468863 1.240913,1.19803 -0.338673,-0.982964 0.971289,0.703293 0.453637,0.583945 0.765997,1.269766 1.214112,1.875447 0.361283,0.488317 1.095653,1.152703 1.456934,1.641018 0.735511,0.994129 0.932061,2.26856 1.456935,3.282036 0.187586,0.362204 0.759417,0.596804 0.971291,0.937723 0.430705,0.693034 0.571823,1.588152 0.728468,2.344312 0.193086,0.93207 0.828654,1.614804 0.97129,2.578741 0.03433,0.232074 -0.0589,0.475862 0,0.703293 0.02777,0.107222 0.191631,0.135594 0.242821,0.234432 0.291456,0.562764 0.812054,1.494941 0.971291,2.109878 0.03926,0.151622 -0.07238,0.329075 0,0.468863 0.03619,0.06988 0.206625,-0.06989 0.242823,0 0.220183,0.425148 0.05997,0.965255 0.242821,1.406587 0.04252,0.102616 0.206626,0.129583 0.242824,0.23443 0.121412,0.351646 -0.121412,0.82051 0,1.172156 0.09228,0.267292 0.428411,0.427014 0.485643,0.703293 0.09524,0.459757 -0.217186,0.987223 0,1.406587 0.120443,0.232571 0.401806,0.460464 0.485646,0.703293 0.218539,0.632964 -0.21854,1.476917 0,2.10988 0.138853,0.402175 0.113716,0.798233 0.242822,1.172156 0.03619,0.104831 0.206625,0.129584 0.242823,0.23443 0.09955,0.288294 -0.22202,1.42667 0,1.641017 0.323763,0.312576 0.242823,-0.390718 0.242823,0.234431 0,0.335783 0.221358,1.896171 0,2.109879 -0.05724,0.05526 -0.185589,-0.05526 -0.242823,0 -0.05723,0.05526 0.03619,0.164538 0,0.234433 -0.04189,0.08088 -2.276647,1.826667 -2.428225,1.875447 -0.153571,0.04942 -0.340852,-0.06988 -0.485644,0 -0.08919,0.04305 -1.342549,1.061724 -1.456935,1.172156 -0.286666,0.27676 -1.789256,2.270298 -1.94258,2.34431 -0.6803,0.328396 -4.370805,3.60904 -4.370805,3.98533"
       id="path56" />
    <path
       style="fill:#00b837;fill-opacity:0;stroke:#000000;stroke-width:1.53691;stroke-opacity:1"
       d="m 65.813285,51.441562 c 0.08095,0.312574 -0.08095,1.015868 0.242823,0.937724 0.323763,-0.07815 -0.4513,-1.189316 -0.242823,-0.937724 0.520581,0.628238 0.751861,1.440463 1.214113,2.10988 0.129967,0.188214 1.384081,0 1.699756,0 1.351192,0 1.508275,-3.133341 1.214114,-3.98533 -0.07469,-0.216307 -0.825598,-1.078383 -0.971291,-1.172154 -0.237309,-0.152739 -1.987047,-0.127666 -2.185401,0 -0.190486,0.122607 -0.29516,0.34626 -0.485645,0.468861 -0.06735,0.04334 -0.185589,-0.05526 -0.242823,0 -0.114467,0.110511 0.07239,0.329075 0,0.468863 -0.700693,1.352958 -0.242823,-3.702822 -0.242823,2.10988 z"
       id="path57" />
    <path
       style="fill:#00b837;fill-opacity:0;stroke:#000000;stroke-width:1.53691;stroke-opacity:1"
       d="m 68.241509,50.738268 0.485645,-0.703292"
       id="path58" />
    <path
       style="fill:#00b837;fill-opacity:0;stroke:#000000;stroke-width:1.53691;stroke-opacity:1"
       d="m 48.815711,49.331682 c -0.434476,5.315886 1.456935,10.445977 1.456935,15.706882 0,0.56592 0.212974,2.636376 0,3.047603 -0.455458,0.879437 -1.214111,1.270132 -1.214111,2.344313"
       id="path59" />
    <path
       style="fill:#00b837;fill-opacity:0;stroke:#000000;stroke-width:1.53691;stroke-opacity:1"
       d="m 50.515469,38.782284 c 0.81593,2.325336 2.035673,4.497198 2.91387,6.798501 0.705786,1.849502 1.38658,3.747597 1.942579,5.626346 0.266884,0.90181 0.909339,1.696016 1.214113,2.578741 0.615516,1.782736 1.140927,3.593517 1.699758,5.391916 0.129263,0.415971 0.662622,1.772186 0.728467,2.34431 0.197352,1.714791 0.242822,3.406024 0.242822,5.157483 0,1.202312 0.204249,2.567754 0,3.750899 -0.168428,0.975644 -0.221429,0.406902 -0.485644,1.172154 -0.119034,0.344751 -0.0071,1.534284 -0.242824,1.875448 -0.100393,0.14538 -0.38525,0.08904 -0.485644,0.234431 -0.228935,0.331536 -0.05825,0.815767 -0.242823,1.172157 -0.134489,0.259688 -0.347829,0.972574 -0.485644,1.172153 -0.05504,0.07971 -0.406322,0.157851 -0.485646,0.234433 -0.210086,0.202826 -0.461218,1.148571 -0.728468,1.406586 -0.05723,0.05526 -0.185587,-0.05526 -0.242821,0 -0.114467,0.110512 0.114467,0.358351 0,0.468861 -0.121161,0.116975 -1.023981,0 -1.214113,0"
       id="path60" />
    <path
       style="fill:#00b837;fill-opacity:0;stroke:#000000;stroke-width:1.53691;stroke-opacity:1"
       d="m 44.930552,11.353849 c 4.045277,5.077125 3.951551,4.925209 9.470077,12.190414 0.411754,0.542081 0.902727,1.039768 1.214111,1.641018 0.114468,0.221023 0.111135,0.491397 0.242824,0.703293 0.400817,0.644943 1.057963,1.201376 1.456935,1.875449 0.235459,0.397815 0.327943,1.260389 0.485644,1.641017 0.309493,0.746997 0.985178,1.336298 1.214113,2.10988 0.08894,0.300549 -0.08894,0.637177 0,0.937724 0.08018,0.270911 0.393358,0.436 0.485645,0.703294 0.07678,0.2224 -0.05889,0.475861 0,0.703292 0.10572,0.408253 0.379929,0.763904 0.485644,1.172156 0.139494,0.538711 0.103327,1.336738 0.242824,1.875449 0.237183,0.915947 0.608146,1.883866 0.728467,2.813174 0.1819,1.404914 0.06172,2.821031 0.242823,4.219758 0.06349,0.490409 0.401486,0.919086 0.485645,1.406586 0.104301,0.604218 -0.124385,1.275015 0,1.875449 0.106812,0.515623 0.351287,1.122161 0.485643,1.641017 0.06943,0.268132 0.631312,2.156711 0.728468,2.344312 0.262658,0.507161 0.597214,0.772996 0.728467,1.406586 0.180637,0.87197 0.161255,1.978025 0.485646,2.813174 0.08039,0.206951 0.383261,0.271172 0.485645,0.468861 0.659044,0.36837 0.05997,0.965254 0.242823,1.406586 0.108381,0.261599 0.370684,0.444323 0.485645,0.703294 0.494832,1.11471 0.07452,0.738016 0.242822,1.875448 0.161434,1.090987 0.59966,2.162826 0.728468,3.282035 0.140478,1.220556 0,2.524169 0,3.750898 0,1.850515 0.324112,4.322041 0,6.095207 -0.401437,2.196196 -1.104593,4.352986 -1.456935,6.56407 -0.132409,0.830929 -0.04557,1.753528 -0.242823,2.578742 -0.422116,1.765958 -1.190458,3.591034 -1.456935,5.391914 -0.04578,0.309434 0.04579,0.628292 0,0.937726 -0.152539,1.030813 -1.171301,3.369434 -1.699758,4.219758 -0.117782,0.189529 -0.367857,0.279338 -0.485644,0.468867 -0.131689,0.211889 -0.111135,0.491391 -0.242823,0.703291 -0.393686,0.633472 -1.214112,1.077491 -1.214112,1.875448"
       id="path61" />
    <path
       style="fill:#00b837;fill-opacity:0;stroke:#000000;stroke-width:1.53691;stroke-opacity:1"
       d="m 70.912557,41.829889 c 3.068558,3.691061 6.308846,7.33528 8.255964,11.721553 0.131454,0.296142 0.107289,0.643298 0.242824,0.937723 0.310123,0.673668 1.004335,1.166608 1.214111,1.875449 0.08894,0.300549 -0.05323,0.629403 0,0.937724 0.11758,0.681119 0.582903,1.407211 0.728467,2.10988 0.291805,1.408603 0,4.069729 0,5.626346"
       id="path62" />
    <path
       style="fill:#00b837;fill-opacity:0;stroke:#000000;stroke-width:1.53691;stroke-opacity:1"
       d="m 89.367065,54.254734 c 0.161883,0.390719 0.332597,0.778133 0.485646,1.172157 0.351867,0.905887 0.486437,1.87851 0.728468,2.813171 0.0599,0.231354 0.242821,2.041248 0.242821,1.406587"
       id="path63" />
  </g>
</svg>
