<?xml version="1.0" encoding="UTF-8" standalone="no"?>
<!-- Created with Inkscape (http://www.inkscape.org/) -->

<svg
   width="120"
   height="120"
   viewBox="0 0 120 120"
   version="1.1"
   id="svg1"
   sodipodi:docname="patrick.svg"
   inkscape:version="1.4.2 (f4327f4, 2025-05-13)"
   xmlns:inkscape="http://www.inkscape.org/namespaces/inkscape"
   xmlns:sodipodi="http://sodipodi.sourceforge.net/DTD/sodipodi-0.dtd"
   xmlns="http://www.w3.org/2000/svg"
   xmlns:svg="http://www.w3.org/2000/svg">
  <sodipodi:namedview
     id="namedview1"
     pagecolor="#ffffff"
     bordercolor="#000000"
     borderopacity="0.25"
     inkscape:showpageshadow="2"
     inkscape:pageopacity="0.0"
     inkscape:pagecheckerboard="0"
     inkscape:deskcolor="#d1d1d1"
     inkscape:document-units="px"
     inkscape:zoom="4.5549462"
     inkscape:cx="77.059088"
     inkscape:cy="62.459574"
     inkscape:window-width="1920"
     inkscape:window-height="991"
     inkscape:window-x="-9"
     inkscape:window-y="-9"
     inkscape:window-maximized="1"
     inkscape:current-layer="layer1" />
  <defs
     id="defs1" />
  <g
     inkscape:label="Слой 1"
     inkscape:groupmode="layer"
     id="layer1">
    <path
       style="fill:#00b837;fill-opacity:0;stroke:#000000"
       d="m 56.641723,5.9276221 c -0.84449,0.4999964 -2.416319,-0.4384023 -3.293124,0 -0.06545,0.032727 0.05175,0.1677952 0,0.2195416 -0.115708,0.1157086 -0.323374,0.103833 -0.439083,0.2195416 -0.05175,0.051746 0.03273,0.1540869 0,0.2195415 -0.131725,0.2634499 -0.5269,0.3951748 -0.658625,0.6586247 -0.06545,0.1309093 0.04206,0.2988947 0,0.4390831 1.925511,1.9867231 -0.650246,1.2921158 -0.878166,1.9758741 -0.141359,0.4240773 0.200657,1.1354783 0,1.5367913 -0.162959,0.325919 -0.575267,0.764277 -0.658624,1.097707 -0.149135,0.59654 0.277971,1.639473 0,2.195416 -0.500105,1.000209 -0.219542,2.779565 -0.219542,3.951748 0,0.814285 0.247898,2.110345 0,2.85404 -0.03273,0.09818 -0.194441,0.119139 -0.219542,0.219542 -0.07931,0.317233 0.1178,2.5167 0,2.634499 -0.05175,0.05175 -0.167795,-0.05175 -0.219541,0 -0.634312,0.634311 -0.216528,2.405915 -0.439083,3.073582 -0.162919,0.488755 -0.33841,1.033423 -0.439083,1.53679 -0.09851,0.492562 0.09851,1.04423 0,1.536791 0.440907,0.390904 -0.365903,0.658625 -0.439083,0.878167 -0.04628,0.13885 0.04628,0.300232 0,0.439083 -0.03273,0.09818 -0.199245,0.118058 -0.219542,0.219541 -0.05741,0.287038 0.05741,0.591129 0,0.878167 -0.0203,0.101483 -0.173258,0.126974 -0.219542,0.219541 -0.30036,0.600722 -0.404951,2.09302 -0.658624,2.85404 -0.253401,0.760203 -0.243653,1.633234 -0.439083,2.414958 -0.0775,0.309993 0.141166,0.815374 0,1.097707 -0.502378,1.004756 0.09099,-0.931606 -0.439084,0.658625 -0.154781,0.464345 -0.23007,1.118765 -0.439083,1.536791 -0.09257,0.185134 -0.346516,0.253949 -0.439083,0.439083 -0.09818,0.196364 0.08154,0.454786 0,0.658625 -1.041222,2.603055 0.12978,-0.918184 -0.878166,1.097708 -0.134938,0.269876 -0.0643,0.619434 -0.219542,0.878166 -0.08419,0.140317 -0.340901,0.08863 -0.439083,0.219541 -0.1877,0.250268 -0.30317,0.825882 -0.439083,1.097708 -0.154956,0.309913 -0.432174,0.325858 -0.658625,0.439083 -0.436619,0.21831 -0.682885,0.838444 -1.097707,1.097708 -0.416291,0.260182 -0.891021,0.415065 -1.31725,0.658625 -0.768395,0.439083 0.658625,0 -0.658624,0.658625 -0.13091,0.06545 -0.335591,-0.103493 -0.439083,0 -0.103493,0.103492 0.06545,0.308173 0,0.439083 -0.0066,0.01329 -0.866767,-0.0114 -1.097708,0.219541 -0.05175,0.05175 0.05175,0.167795 0,0.219542 -0.365002,0.365001 -1.645246,1.133859 -2.195416,1.317249 -0.297,0.099 -4.342004,0.139403 -4.829914,0 -0.253704,-0.07249 -0.413641,-0.341089 -0.658625,-0.439083 -0.135893,-0.05436 -0.317303,0.08119 -0.439083,0 -0.136154,-0.09077 -0.07922,-0.354893 -0.219542,-0.439083 -0.258732,-0.155239 -0.600831,-0.100684 -0.878166,-0.219542 -0.242522,-0.103938 -0.41364,-0.341089 -0.658625,-0.439083 -0.135892,-0.05436 -0.317303,0.08119 -0.439083,0 -0.136154,-0.09077 -0.08863,-0.340901 -0.219541,-0.439083 -0.185134,-0.13885 -0.466074,-0.09117 -0.658625,-0.219541 -0.585444,-0.390297 0.87969,-0.07267 -0.219541,-0.439084 -0.683846,-0.227948 -1.929605,0 -2.634499,0 -1.837795,0 -3.882928,-0.228144 -5.708081,0 -0.868835,0.108605 -1.758544,0.512633 -2.634498,0.658625 -1.313672,0.218945 -2.806861,0.279931 -3.951749,1.097708 -1.280659,0.914756 -0.121967,0.365902 -1.097707,1.097708 -0.13091,0.09818 -0.348314,0.08339 -0.439084,0.219541 -0.218601,0.327902 -0.247696,0.753212 -0.439083,1.097708 -0.177698,0.319856 -0.4556581,0.573717 -0.6586243,0.878166 -0.3300444,0.495067 -0.2249105,0.674732 -0.4390831,1.31725 -0.1034929,0.310478 -0.3852798,0.555346 -0.4390832,0.878166 -0.1704756,1.022854 0,2.259696 0,3.293123 0,0.608331 -0.1485489,1.60122 0,2.195416 0.1950328,0.780131 0.7391632,1.103226 1.3172496,1.536791 2.82789,2.120917 6.051727,1.536791 9.440287,1.536791 0.702775,0 1.507494,-0.114654 2.195416,0 0.851868,0.141978 1.807207,0.451802 2.634498,0.658624 0.460411,0.115103 0.852497,0.565675 1.31725,0.658625 0.215278,0.04306 0.443346,-0.04305 0.658624,0 0.320918,0.06418 0.560665,0.359708 0.878167,0.439083 1.283104,0.320777 -0.82087,-0.696795 1.317249,0.219542 0.242522,0.103938 0.41364,0.341089 0.658625,0.439083 0.579685,0.231874 0.333926,-0.324698 0.878166,0.219542 0.05175,0.05175 -0.06546,0.186814 0,0.219541 0.130909,0.06546 0.308174,-0.06546 0.439083,0 0.130909,0.06546 -0.103493,0.33559 0,0.439083 0.115709,0.115709 0.365903,0.07318 0.439083,0.219542 0.09818,0.196364 -0.04306,0.443346 0,0.658624 0.03209,0.160459 0.179854,0.280333 0.219542,0.439084 0.141991,0.567964 0,1.170888 0,1.756332 0,1.46361 0,2.927221 0,4.390831 0,3.392301 0.241983,6.930682 0,10.318454 -0.01649,0.230829 -0.16934,0.432718 -0.219542,0.658624 -0.288739,1.299326 -0.640436,2.644231 -0.878166,3.951748 -0.144594,0.795268 -0.06102,1.622349 -0.219542,2.414958 -0.281476,1.407383 -0.936676,2.722002 -1.097708,4.171289 -0.125227,1.127051 -0.205818,4.678985 0,5.708085 0.03589,0.17942 0.600314,0.41964 0.658625,0.43908 0.92103,0.30701 2.400562,-0.59294 3.073582,-1.09771 1.042354,-0.78176 2.152263,-1.493637 3.073582,-2.414956 0.373149,-0.373149 0.505017,-0.944101 0.878166,-1.317249 0.681044,-0.681044 0.338703,0.470493 0.878166,-0.878167 0.05436,-0.135892 -0.0355,-0.297092 0,-0.439083 0.18049,-0.72196 0.773587,-1.327631 1.097708,-1.975874 0.310479,-0.620957 0.400786,-1.331278 0.658625,-1.975874 0.347901,-0.869752 0.900018,-1.800036 1.317249,-2.634499 0.460205,-0.92041 1.242207,-1.753139 1.756333,-2.634498 1.217144,-2.086533 2.24406,-3.408815 3.732206,-5.268998 0.856522,-1.070652 2.930672,-3.525921 4.610373,-2.85404 0.489969,0.195987 0.98759,0.466092 1.317249,0.878166 0.144565,0.180707 0.08503,0.470313 0.219542,0.658625 0.240616,0.336862 0.624012,0.551397 0.878166,0.878166 1.899354,2.442026 -0.08462,0.07145 0.878166,1.756333 1.023681,1.79144 2.365086,3.412921 3.293124,5.268997 0.263856,0.527712 0.103833,1.17779 0.219541,1.756333 0.122541,0.612704 0.511548,1.168023 0.658625,1.756332 0.478827,1.915308 1.100751,6.258456 3.073582,7.244872 0.866897,0.433448 2.704891,0.300319 3.512665,0.219541 0.162824,-0.01628 0.276882,-0.197915 0.439083,-0.219541 2.544561,-0.339275 3.878492,-0.170704 5.927622,-1.536791 0.40052,-0.267013 0.611264,-0.724045 0.878166,-1.097708 0.425354,-0.595495 1.033268,-1.081875 1.31725,-1.756333 1.676022,-3.980553 1.975874,-7.2804 1.975874,-11.416161 0,-0.832465 0.135443,-1.821842 0,-2.634499 -0.191217,-1.147299 -3.013536,-7.664253 -2.414957,-8.56212 0.429502,-0.644255 3.369778,-0.937406 4.171289,-1.097708 2.199383,-0.439877 4.332681,-1.273637 6.147164,-2.634499 0.248383,-0.186287 0.400291,-0.486402 0.658625,-0.658625 3.849432,-2.138573 0.477072,-0.121224 3.073582,-1.975874 1.682807,-1.202005 3.021482,-2.18859 4.610372,-3.512665 0.979885,-0.81657 1.152425,-0.713341 2.195416,-1.756332 0.515563,-0.515564 0.778771,-1.338 1.097708,-1.975874 0.857208,-1.714416 0.254803,-3.038321 -1.097708,-4.390831 -0.292722,-0.292723 -0.528914,-0.655916 -0.878166,-0.878167 -0.470195,-0.299215 -1.026193,-0.435238 -1.536791,-0.658624 -2.368365,-1.03616 -4.583065,-2.479036 -7.02533,-3.293124 -1.965913,-0.655304 -4.122345,-0.653186 -6.147164,-0.878166 -0.795207,-0.08836 -1.633099,-0.46316 -2.414957,-0.658625 -0.362008,-0.0905 -0.75672,-0.06799 -1.097708,-0.219541 C 74.090223,47.491912 73.856708,47.175822 73.546423,46.981894 73.268896,46.80844 72.914555,46.758322 72.668257,46.542811 72.315611,46.234246 72.101401,45.795327 71.79009,45.445103 71.515063,45.135697 71.124911,44.921915 70.911924,44.566937 70.673798,44.17006 70.650854,43.676919 70.472841,43.249687 69.629813,41.226419 68.881509,39.281597 68.496967,37.102524 68.330899,36.161472 68.284764,34.573006 68.057884,33.589859 67.953811,33.138877 67.71712,32.72488 67.618801,32.272609 67.35044,31.038151 67.300797,29.756907 66.960176,28.540403 66.54355,27.052454 65.993477,26.921561 65.423385,25.686363 65.161367,25.118657 65.01106,24.50473 64.76476,23.93003 64.209168,22.633647 63.37482,21.467346 62.788886,20.197824 61.796568,18.0478 61.120997,15.633239 60.373929,13.392035 59.745972,11.508164 59.322894,9.5564899 58.178514,7.9034962 57.703573,7.2174703 57.014872,6.6739199 56.641723,5.9276221 55.969305,4.5827869 56.63853,4.0228003 55.544015,3.2931234 c -0.06089,-0.040593 -0.167795,0.051747 -0.219542,0 -0.204475,-0.204475 0.01722,-0.2195415 -0.439083,-0.2195415"
       id="path10" />
    <path
       style="fill:#00b837;fill-opacity:0;stroke:#000000"
       d="m 50.275017,40.615189 c -0.208887,1.044438 -0.878166,3.896342 -0.878166,5.268997 0,0.157421 0.847455,1.960518 0.878166,1.975874 0.333755,0.166878 0.743708,0.101542 1.097708,0.219542 0.879717,0.293239 2.110954,0.759959 3.073582,0.439083 0.313065,-0.104355 0.512377,-0.658795 0.658625,-0.878166 0.368163,-0.552245 0.550506,-0.779962 0.658624,-1.536791 0.197529,-1.382702 0.191092,-3.817558 -0.219541,-5.049456 -0.09818,-0.294546 -0.472338,-0.410242 -0.658625,-0.658625 -0.196364,-0.261818 -0.242719,-0.616347 -0.439083,-0.878166 -0.650531,-0.867374 -0.319224,-0.159612 -0.878166,-0.439083 -0.185134,-0.09257 -0.25395,-0.346516 -0.439083,-0.439083 -0.298283,-0.149141 -1.892741,0.0682 -2.195416,0.219541 -0.559245,0.279623 -0.486854,1.155135 -0.658625,1.756333 z"
       id="path11" />
    <path
       style="fill:#00b837;fill-opacity:0;stroke:#000000"
       d="m 62.130262,40.615189 c -0.365903,0.292722 -0.825349,0.496864 -1.097708,0.878166 -0.113825,0.159355 -0.219542,1.858296 -0.219542,2.195416 0,1.156532 0.158757,0.994731 0.439083,1.975874 0.851803,2.981307 1.430159,3.073582 4.610373,3.073582 0.446822,0 1.316696,0.0011 1.536791,-0.439084 0.229012,-0.458023 -0.161877,-1.270701 0,-1.756332 0.365406,-1.096217 0.745196,-2.727298 0.439083,-3.951748 -0.132377,-0.529508 -0.789026,-0.854228 -1.097707,-1.31725 -0.04059,-0.06089 0.05175,-0.167795 0,-0.219541 -0.45424,-0.454239 0.01776,0.694138 -0.439084,-0.219542 -0.03273,-0.06545 0.05175,-0.167795 0,-0.219541 -0.09508,-0.09508 -0.736474,-0.344622 -0.878166,-0.439083 -0.383956,-0.255971 -0.999598,-0.677836 -1.536791,-0.439083 -0.598132,0.265836 -1.170888,0.585444 -1.756332,0.878166 z"
       id="path12" />
    <path
       style="fill:#00b837;fill-opacity:0;stroke:#000000"
       d="m 51.811808,57.519889 c 0.292722,0 0.878167,0.292722 0.878167,0 0,-0.292722 -1.170889,0 -0.878167,0 0.804986,0 1.620925,-0.132339 2.414958,0 0.682766,0.113794 1.259603,0.439083 1.975874,0.439083 0.468159,0 2.254918,-0.18979 2.634498,0 0.06546,0.03273 -0.06089,0.178948 0,0.219542 0.192551,0.128367 0.460186,0.100478 0.658625,0.219541 0.177489,0.106493 0.253949,0.346516 0.439083,0.439083 0.130909,0.06546 0.300233,-0.04628 0.439083,0 0.142118,0.04737 1.278975,0.725067 1.31725,0.878167 0.08653,0.346134 -0.116855,2.985061 -0.219542,3.293123 -0.03273,0.09818 -0.186814,0.12136 -0.219542,0.219542 -0.131724,0.395174 0.131725,0.922074 0,1.317249 -0.09818,0.294546 -0.543315,0.370352 -0.658624,0.658625 -0.08154,0.203839 0.12178,0.475955 0,0.658624 -0.08119,0.12178 -0.33559,-0.103493 -0.439083,0 -0.103493,0.103493 0.103493,0.335591 0,0.439083 -0.163637,0.163637 -0.460186,0.100479 -0.658625,0.219542 -1.097708,0.658625 0,0.219542 -0.658625,0.658625 -0.859849,0.573232 -2.260603,0.439083 -3.293123,0.439083 -0.318315,0 -1.625198,-0.175338 -1.975874,0 -0.185134,0.09257 -0.25395,0.346516 -0.439083,0.439083 -0.338712,0.169356 -0.839397,0.271158 -1.097708,0.658625 -0.09077,0.136153 -0.103833,0.323374 -0.219542,0.439083 -0.115708,0.115708 -0.340901,0.08863 -0.439083,0.219541 -0.13885,0.185134 -0.08069,0.473491 -0.219541,0.658625 -0.09818,0.130909 -0.340901,0.08863 -0.439083,0.219541 -0.385425,0.5139 -0.904363,2.318285 -1.536791,2.634499 -0.805017,0.402509 -2.673324,-0.297191 -3.073582,-1.097708 -0.06546,-0.130909 0.04628,-0.300232 0,-0.439083 -0.03273,-0.09818 -0.199245,-0.118058 -0.219542,-0.219541 -0.178317,-0.891588 -0.121842,-2.439665 0.219542,-3.293124 0.09799,-0.244984 0.355644,-0.408308 0.439083,-0.658624 0.04628,-0.138851 -0.0355,-0.297092 0,-0.439083 0.116228,-0.464912 0.542397,-0.852338 0.658625,-1.31725 0.204598,-0.818395 -0.369783,-0.06639 0.219541,-1.097708 0.181539,-0.317692 0.455659,-0.573717 0.658625,-0.878166 0.383659,-0.575489 0.08206,-0.383659 0.439083,-1.097708 0.395175,-0.790349 1.580699,-1.185524 1.975874,-1.975874 0.103493,-0.206986 0.09117,-0.466074 0.219542,-0.658624 0.04059,-0.06089 0.160997,0.04391 0.219541,0 0.983546,-0.73766 0.683018,-0.82938 0.878166,-2.195416 z"
       id="path13" />
    <path
       style="fill:#00b837;fill-opacity:0;stroke:#000000"
       d="m 32.053068,73.765964 c 2.78086,0.146361 5.570414,0.175068 8.342579,0.439084 5.427843,0.516937 10.632508,2.140057 15.806993,3.732206 2.330796,0.717168 -0.270417,0.155283 2.634498,1.317249 0.560301,0.224121 1.199291,0.206983 1.756333,0.439084 0.337756,0.140731 0.55831,0.480926 0.878166,0.658624 1.152961,0.640534 4.580819,1.807524 5.927622,1.975874 1.836002,0.229501 3.853184,0 5.708081,0"
       id="path14" />
    <path
       style="fill:#00b837;fill-opacity:0;stroke:#000000"
       d="m 37.541607,81.449919 c -1.170888,0.878166 -2.502078,1.575788 -3.512665,2.634499 -0.341294,0.357546 -1.578974,2.550132 -1.097708,3.512665 0.875203,1.750406 4.465498,1.852915 5.927622,0.878166 0.253317,-0.168878 0.405308,-0.489747 0.658625,-0.658625 0.06089,-0.04059 0.167795,0.05175 0.219542,0 0.267303,-0.267303 -0.353837,-2.621649 -0.219542,-3.293123 0.193985,-0.969925 1.029966,-1.553109 1.317249,-2.414957 0.06965,-0.208955 0,-0.876681 0,-1.097708 0,-1.657104 0.37942,-1.676393 -1.097707,-2.414957 -0.09257,-0.04628 -0.12136,-0.186814 -0.219542,-0.219542 -0.208955,-0.06965 -0.87668,0 -1.097708,0 -2.198026,0 -0.383014,2.436958 -0.878166,3.073582 -0.01694,2.94497 -1.372412,0.137352 -1.975874,0.439083 -0.542576,0.271288 0.07578,0.219542 -0.439083,0.219542"
       id="path15" />
    <path
       style="fill:#00b837;fill-opacity:0;stroke:#000000"
       d="m 60.813012,86.060292 c 0.585445,1.46361 0.844021,3.105301 1.756333,4.390831 0.445935,0.628364 3.566805,3.266053 4.829914,2.634499 0.06546,-0.03273 0,-0.146361 0,-0.219542 0,-0.365902 0,-0.731805 0,-1.097708 0,-1.913095 0.103493,0.633514 -0.219541,-0.658624 -0.05325,-0.212987 0.04306,-0.443347 0,-0.658625 C 67.015949,89.632278 65.401474,87.66737 64.76476,87.158 c -0.127778,-0.102223 -0.323374,-0.103833 -0.439083,-0.219542 -0.661639,-0.661639 2.066924,-2.500618 0.878167,-3.293123 -0.99507,-0.66338 -5.081049,-1.72474 -6.147164,-0.658625 -0.301731,0.301731 -0.402598,0.756338 -0.658625,1.097708 -0.186287,0.248383 -0.494071,0.395339 -0.658624,0.658625 -0.295383,0.472611 -0.409381,1.038303 -0.658625,1.53679"
       id="path16" />
    <circle
       id="path17"
       style="fill:#000000;stroke:none"
       cx="53.129059"
       cy="44.786476"
       r="1.5" />
    <circle
       id="path18"
       style="fill:#000000;stroke:none"
       cx="64.106133"
       cy="44.566936"
       r="1.5" />
    <path
       style="fill:#00b837;fill-opacity:0;stroke:#000000"
       d="m 50.055476,55.763556 c -0.525206,1.575619 -0.355942,1.645478 -1.097708,2.634499 -0.164656,0.219542 -0.548854,0.439083 -0.658625,0.658625 -0.253273,0.506546 0,2.709113 0,3.293123 0,0.292722 0,0.585444 0,0.878167 0,0.07318 -0.07318,0.219541 0,0.219541 0.03991,0 -0.05405,-0.996253 0,-1.536791 0.107446,-1.074451 0.470813,-5.890059 1.756333,-6.147164 1.395039,-0.279007 2.02513,0.967766 3.073582,1.31725 0.813076,0.271025 6.417397,0 7.464413,0 0.623557,0 2.430095,-0.23468 2.85404,-0.658625 1.02e-4,-1.01e-4 0.863498,-0.673293 0.658625,-0.878166 -0.388702,-0.388702 -0.628361,2.233372 -0.658625,2.414957 -0.04812,0.288739 0.04812,0.589427 0,0.878166 -0.158887,0.953321 -0.552331,1.897398 -0.658625,2.854041 -0.09355,0.841962 0,1.778287 0,2.634498"
       id="path19" />
    <path
       style="fill:#00b837;fill-opacity:0;stroke:#000000"
       d="m 70.253299,88.694791 c 0,-0.658625 0.129167,-1.33004 0,-1.975874 -0.689232,-3.446162 -3.818387,0.09163 -2.634498,2.85404 0.681387,1.589904 2.909255,3.062803 4.390831,3.951748 0.125504,0.0753 0.33559,-0.103493 0.439083,0 1.479516,1.479516 -2.302277,3.726388 -2.85404,4.829914 -0.195641,0.391282 -0.456623,0.913245 -0.658625,1.31725 -0.06546,0.130909 0.103493,0.335591 0,0.439081 -0.05175,0.0517 -0.154087,0.0327 -0.219541,0 -0.931206,-0.465601 -0.09154,-2.067417 -0.439084,-2.414955 -0.103492,-0.103493 -0.292722,0 -0.439083,0"
       id="path20" />
    <path
       style="fill:#00b837;fill-opacity:0;stroke:#000000"
       d="m 32.492151,92.646539 c 0.14752,0.685162 0.793432,3.639766 0.439083,4.171289 -0.09077,0.136154 -0.354893,0.07922 -0.439083,0.219542 -0.155239,0.258732 -0.06984,0.61619 -0.219542,0.878166 -0.906667,1.586668 -0.311177,0.09164 -1.097707,0.878166 -0.554933,0.554933 -0.790419,1.009961 -1.31725,1.536788 -0.178118,0.17812 -0.434941,0.54679 -0.658624,0.65863 -0.13091,0.0654 -0.439084,-0.14636 -0.439084,0 0,0.0732 0.154087,0.0327 0.219542,0 0.609103,-0.30455 1.485593,-1.653939 1.756333,-2.195418 0.06545,-0.130909 -0.08119,-0.317303 0,-0.439083 0.09077,-0.136154 0.340901,-0.08863 0.439083,-0.219541 0.13885,-0.185134 0.116048,-0.451639 0.219541,-0.658625 0.09257,-0.185134 0.346516,-0.253949 0.439083,-0.439083 0.08782,-0.175633 -0.08782,-0.482992 0,-0.658625 0.09257,-0.185133 0.362211,-0.246901 0.439083,-0.439083 0.182649,-0.456622 -0.06334,-1.249629 0,-1.756332 0.06418,-0.513469 0.61243,-1.20003 0.219542,-1.536791 -0.776408,-0.665493 -1.960273,0.172737 -2.195416,0.878166 -0.11919,0.35757 0.201969,1.014296 0,1.317249 -0.582237,0.873356 -1.445202,1.664744 -2.195415,2.414957"
       id="path21" />
  </g>
</svg>
