<?xml version="1.0" encoding="UTF-8" standalone="no"?>
<!-- Created with Inkscape (http://www.inkscape.org/) -->

<svg
   width="120"
   height="120"
   viewBox="0 0 120 120"
   version="1.1"
   id="svg1"
   inkscape:version="1.4.2 (f4327f4, 2025-05-13)"
   sodipodi:docname="seaflower.svg"
   xmlns:inkscape="http://www.inkscape.org/namespaces/inkscape"
   xmlns:sodipodi="http://sodipodi.sourceforge.net/DTD/sodipodi-0.dtd"
   xmlns="http://www.w3.org/2000/svg"
   xmlns:svg="http://www.w3.org/2000/svg">
  <sodipodi:namedview
     id="namedview1"
     pagecolor="#ffffff"
     bordercolor="#000000"
     borderopacity="0.25"
     inkscape:showpageshadow="2"
     inkscape:pageopacity="0.0"
     inkscape:pagecheckerboard="0"
     inkscape:deskcolor="#d1d1d1"
     inkscape:document-units="px"
     inkscape:zoom="6.4416667"
     inkscape:cx="63.492885"
     inkscape:cy="61.862872"
     inkscape:window-width="1920"
     inkscape:window-height="991"
     inkscape:window-x="-9"
     inkscape:window-y="-9"
     inkscape:window-maximized="1"
     inkscape:current-layer="layer1" />
  <defs
     id="defs1" />
  <g
     inkscape:label="Слой 1"
     inkscape:groupmode="layer"
     id="layer1">
    <path
       style="fill:#00b837;fill-opacity:0"
       d="m 47.347995,66.131953 c -2.225097,-0.413971 -4.44781,-0.840968 -6.675291,-1.241914 -1.415502,-0.25479 -3.876517,-1.011289 -5.278137,-0.310479 -0.459324,0.229662 -0.724187,0.59484 -1.086676,0.931436 -0.563713,0.523448 -1.18782,0.985326 -1.707632,1.552393 -0.589645,0.643249 -3.846914,5.013105 -4.036223,5.278138 -0.283746,0.397244 -0.483291,0.851374 -0.776196,1.241914 -2.079344,2.772458 -0.369859,0.173537 -1.552394,1.862872 -0.213987,0.305696 -0.357101,0.66758 -0.620957,0.931436 -0.213356,0.213356 -0.530668,0.29034 -0.776197,0.465718 -1.880415,1.343154 -4.198096,1.678995 -6.364812,0.776197 -1.349503,-0.562293 -2.12005,-1.428755 -3.104787,-2.48383 -0.349526,-0.374493 -0.78219,-0.674725 -1.086675,-1.086675 -1.888035,-2.5544 -3.450536,-6.07522 -3.570504,-9.31436 -0.03639,-0.982508 0,-1.966364 0,-2.949547 0,-1.903646 0.15432,-3.722068 0.620957,-5.588616 0.202757,-0.811028 0.607024,-1.558112 0.931436,-2.328589 1.530086,-3.633956 2.463028,-5.369918 6.520052,-5.899095 0.617875,-0.08059 1.245228,-0.07289 1.862872,-0.155239 0.162201,-0.02163 0.303082,-0.137169 0.465718,-0.15524 0.514299,-0.05714 1.038924,0.06418 1.552393,0 0.600893,0.58589 0.501325,-0.264666 0.776196,-0.310478 0.255212,-0.04254 0.520065,0.03659 0.776197,0 0.114546,-0.01636 0.198225,-0.127176 0.310479,-0.15524 1.504298,-0.376074 3.708198,-0.833791 5.278137,-0.310478 1.403845,0.467948 0.478391,0.316815 1.397154,0.776196 0.146361,0.07318 0.334808,0.05706 0.465718,0.15524 0.09257,0.06943 0.07994,0.222626 0.155239,0.310478 0.238126,0.277814 0.56352,0.47845 0.776197,0.776197 0.06015,0.08422 -0.0621,0.227684 0,0.310479 0.329055,0.43874 0.536529,0.141622 0.776196,0.620957 0.04628,0.09257 -0.05741,0.224367 0,0.310479 0.06418,0.09627 0.21126,0.09571 0.310479,0.155239 0.621695,0.373017 0.650648,0.310479 1.397154,0.310479 1.17876,0 2.355097,-0.487808 3.260026,-1.241915 0.254541,-0.212118 0.386665,-0.541905 0.620957,-0.776197 0.131928,-0.131928 0.349166,-0.164788 0.465718,-0.310478 0.600862,-0.751077 0.420901,-2.347165 0,-3.104787 -1.169648,-2.105367 -3.322361,-3.890059 -5.122898,-5.433376 -0.196444,-0.168381 -0.438006,-0.282767 -0.620957,-0.465718 -1.753223,-1.753224 -2.895567,-3.88508 -3.725744,-6.209573 -0.110074,-0.308207 -0.269885,-0.60669 -0.310478,-0.931436 -0.06418,-0.513469 0.03039,-1.035822 0,-1.552394 -0.02149,-0.365271 -0.132415,-0.721485 -0.15524,-1.086675 -0.08552,-1.368326 0.02028,-2.213909 0.620957,-3.415265 0.375683,-0.751365 -0.189221,-0.335795 0.776197,-1.086675 1.379749,-1.073139 3.132898,-1.350851 4.812419,-1.552394 0.571544,-0.06858 3.758271,-0.420307 4.346701,0 1.179597,0.842569 2.464242,3.336916 2.794308,4.65718 0.08874,0.354978 0.06649,0.731698 0.15524,1.086676 0.01775,0.07099 0.144383,0.08287 0.155239,0.155239 0.269758,1.798388 0.17832,3.662827 0.620957,5.433376 0.203325,0.8133 0.753442,1.968859 1.397154,2.48383 0.09035,0.07228 0.206986,0.103492 0.310479,0.155239 0.258732,0.155239 0.547105,0.269354 0.776197,0.465718 0.618377,0.927566 -0.05696,0.121065 0.776196,0.620957 0.221861,0.133117 0.438006,0.282767 0.620957,0.465718 0.08182,0.08182 0.07342,0.22866 0.15524,0.310479 0.263749,0.263749 2.43539,1.046795 2.794308,1.086675 1.811577,0.201286 2.192389,0.01582 3.570504,-1.086675 0.481305,-0.385044 0.139113,-0.302416 0.776197,-0.620958 0.04628,-0.02314 0.103493,0 0.155239,0 0.15524,-0.155239 0.277463,-0.352764 0.465718,-0.465717 0.08874,-0.05325 0.221734,0.05325 0.310479,0 0.188255,-0.112954 0.277462,-0.352765 0.465718,-0.465718 0.08874,-0.05325 0.224367,0.05741 0.310478,0 0.09628,-0.06418 0.06635,-0.236404 0.15524,-0.310479 0.231796,-0.193164 0.525141,-0.298348 0.776196,-0.465718 0.06988,-0.04659 1.062748,-1.186083 1.086676,-1.241915 0.308626,-0.720127 0.155239,-1.917113 0.155239,-2.639068 0,-0.569211 0.123479,-1.151977 0,-1.707633 -0.04047,-0.182131 -0.22704,-0.298841 -0.310479,-0.465718 -0.297221,-0.594443 -1.73324,-3.687332 -1.397154,-4.191462 0.359203,-0.538804 0.849454,-0.501892 1.397154,-0.620957 2.286864,-0.497144 4.18345,-0.989894 6.520052,-0.620957 0.323269,0.05104 0.618635,0.214232 0.931436,0.310478 1.901376,0.585039 3.700042,1.338113 5.433377,2.32859 0.972595,0.555769 2.193343,1.211808 2.794307,2.173351 0.232926,0.37268 1.819858,3.385348 2.018112,3.880983 0.428114,1.070285 0.310478,2.140289 0.310478,3.260026 0,1.707622 -0.136048,3.644145 -1.086675,5.122898 -0.257984,0.401308 -0.629332,0.717436 -0.931436,1.086675 -0.163839,0.200248 -0.269274,0.452577 -0.465718,0.620957 -0.947305,0.811976 -1.994049,1.462743 -3.104786,2.018112 -0.768475,0.384237 -1.773807,0.613326 -2.48383,1.086675 -0.155239,0.103493 -0.191036,0.322387 -0.310478,0.465718 -1.169347,1.403216 -1.862872,2.79142 -1.862872,4.65718 0,0.258732 -0.06808,0.526581 0,0.776196 0.09134,0.334895 0.310478,0.620958 0.465718,0.931436 0.176242,0.352484 0.229264,0.771404 0.465718,1.086676 0.219541,0.292722 0.533104,0.502717 0.776196,0.776196 0.841571,0.946767 1.656852,1.975794 2.639069,2.794308 0.596291,0.496909 1.256764,0.912268 1.862872,1.397154 0.672704,0.569211 1.345407,1.138422 2.018111,1.707633 0.206986,0.258732 0.373312,0.556067 0.620957,0.776196 0.225517,0.200459 0.538025,0.280473 0.776197,0.465718 0.462122,0.359428 0.78476,0.876191 1.241915,1.241915 0.29138,0.233104 0.632917,0.397068 0.931436,0.620957 1.276894,0.957671 2.441832,2.131354 3.570504,3.260026 0.987684,0.987684 2.706503,2.278951 3.260026,3.570505 0.253998,0.592661 0.199623,2.838072 0.155239,3.725743 -0.04047,0.809486 -0.07767,2.54217 -0.465718,3.415266 -0.565105,1.271487 -2.048435,2.017833 -3.260025,2.483829 -0.509479,0.195953 -1.418649,0.247018 -1.862872,0.310478 -2.811552,0.401651 -3.467545,0.137707 -6.054334,-1.241914 -1.729842,-0.922582 -1.140297,-0.283815 -3.260026,-2.639069 -0.232215,-0.258016 -0.28379,-0.635803 -0.465718,-0.931436 -1.854254,-3.013162 0.543349,1.413806 -2.018111,-2.794308 -0.360974,-0.593028 -0.605725,-1.249767 -0.931436,-1.862871 -0.554136,-1.043079 -1.151805,-2.06261 -1.707633,-3.104787 -1.179213,-2.211024 -1.81459,-4.265293 -4.346701,-5.278137 -0.401231,-0.160493 -0.92784,-0.498204 -1.397154,-0.310479 -0.749674,0.29987 -1.614216,2.024773 -1.862872,2.483829 -0.51897,0.9581 -1.206566,2.116497 -1.397154,3.260026 -0.534012,3.204072 0.44849,5.830182 1.241915,9.003881 0.143944,0.575778 0.533037,2.220069 0.776196,2.949548 0.08812,0.264363 0.242893,0.505853 0.310479,0.776196 0.535292,2.141168 0.879813,4.940738 0.620957,7.141009 -0.343577,2.920406 -4.410209,3.911923 -6.83053,3.725744 -1.259018,-0.09685 -2.447214,-0.52503 -3.570505,-1.086675 -1.587053,-0.793527 -3.287811,-2.80676 -4.346701,-4.191462 -1.220651,-1.596237 -2.609832,-3.126669 -3.415265,-4.967659 -0.883083,-2.018476 -1.241915,-4.507428 -1.241915,-6.675291 0,-1.646398 -0.09818,-0.228229 0.310479,-1.862872 0.03317,-0.132683 -0.04976,-0.706538 0,-0.776196 0.421714,-0.5904 2.040861,-1.575144 2.639069,-2.173351 0.612184,-0.612184 1.093346,-1.403825 1.707632,-2.018111 0.131928,-0.131928 0.33379,-0.178551 0.465718,-0.310479 0.213356,-0.213356 0.214663,-0.608826 0.465718,-0.776196 0.08611,-0.05741 0.237298,0.07318 0.310479,0 0.07318,-0.07318 -0.05741,-0.224368 0,-0.310479 0.06418,-0.09627 0.22866,-0.07342 0.310479,-0.155239 0.08182,-0.08182 0.07342,-0.228661 0.155239,-0.310479 0.03659,-0.03659 0.108956,0.02314 0.155239,0 0.523637,-0.261819 0.827943,-0.827943 1.241915,-1.241915 z"
       id="path32" />
    <path
       style="fill:#00b837;fill-opacity:0;stroke:#000000;stroke-opacity:1"
       d="M 58.369987,5.5886158 C 57.800776,5.5368693 57.228168,5.514207 56.662354,5.4333765 55.674885,5.2923094 52.209016,4.0929171 51.384217,4.3467012 c -0.155239,0.047766 -1.474773,0.7523136 -1.862872,0.9314359 -1.479662,0.682921 -2.867214,1.470061 -4.036222,2.6390686 -0.38896,0.3889598 -0.697716,0.8529548 -1.086675,1.2419146 -0.08182,0.081818 -0.238196,0.064886 -0.310479,0.1552393 -0.144565,0.1807065 -0.187828,0.424716 -0.310479,0.6209573 -0.137128,0.2194041 -0.369627,0.3807301 -0.465718,0.6209571 -0.257324,0.64331 -0.155239,2.393435 -0.155239,2.794308 0,1.487301 -0.0609,2.28479 0.155239,3.725744 0.185102,1.234008 0.52644,2.045037 0.931436,3.260026 0.310479,0.931436 0.553813,1.888013 0.931436,2.794308 0.58169,1.396055 1.735344,3.561107 2.639069,4.812419 1.378256,1.908355 2.929406,3.640904 4.036222,5.743855 0.152427,0.28961 0.192995,0.625977 0.310479,0.931436 0.268396,0.69783 0.766628,1.431715 0.931436,2.173351 0.307911,1.385597 0.209197,2.980066 -0.155239,4.346701 -0.113919,0.427193 -0.344258,0.816804 -0.465718,1.241914 -0.466619,1.633166 -0.739679,3.28858 -1.552394,4.812419 -0.155924,0.292358 -0.454005,0.489994 -0.620957,0.776197 -0.315048,0.540082 -0.375918,1.227299 -0.776197,1.707633 -0.119442,0.14333 -0.310478,0.206986 -0.465718,0.310478 -0.155239,0.15524 -0.32517,0.297062 -0.465718,0.465718 -0.119442,0.143331 -0.148486,0.373152 -0.310478,0.465718 -0.229091,0.13091 -0.525881,0.0718 -0.776197,0.15524 -0.219541,0.07318 -0.404275,0.229222 -0.620957,0.310478 -1.697496,0.636561 -2.175997,0.769678 -4.036223,0.931436 -1.692672,0.147189 -3.485307,-0.02903 -5.122897,-0.465718 C 37.406934,51.765609 37.1112,51.610452 36.791721,51.539457 34.94794,51.129728 33.193049,50.811259 31.358344,50.297542 29.076553,49.65864 30.762538,49.878735 27.943079,49.366106 23.834183,48.619034 19.689811,48.564854 15.523933,48.43467 c -1.197184,-0.03741 -4.956969,-0.248529 -5.8990947,0.155239 -0.6708655,0.287514 -1.207331,1.052092 -1.7076326,1.552394 -0.8782368,0.878236 -0.8946515,0.749296 -1.397154,2.32859 -0.7060123,2.218896 -0.9631497,6.538974 -0.1552393,8.693402 1.1425309,3.046749 3.1134267,5.522357 5.5886156,7.606727 0.428139,0.360538 0.941689,0.606103 1.397154,0.931436 1.310065,0.935761 2.85103,2.108468 4.501941,2.32859 1.657324,0.220976 4.565896,-0.0247 6.054333,-0.465718 0.554706,-0.164357 1.03005,-0.527462 1.552394,-0.776197 2.85758,-1.360752 1.203675,-0.333242 4.967658,-2.794308 1.07258,-0.701302 1.930191,-1.719311 2.949547,-2.483829 0.185134,-0.13885 0.431373,-0.17777 0.620958,-0.310479 0.331094,-0.231766 0.600341,-0.54443 0.931436,-0.776196 0.113147,-0.0792 2.142389,-1.082805 2.17335,-1.086675 0.763606,-0.09545 3.30584,-0.365192 4.036223,0 0.741973,0.370986 1.380315,1.564848 1.707632,2.328589 0.511977,1.194613 0.532575,2.610704 0.465718,3.880984 -0.251569,4.779825 -2.519432,9.223206 -4.812419,13.350582 -0.836651,1.505971 -1.263018,1.909301 -2.018111,3.570504 -0.319051,0.701913 -2.089869,5.232073 -2.32859,6.054334 -0.175517,0.60456 -0.173916,1.24834 -0.310479,1.862872 -0.476308,2.143388 -1.086675,3.567345 -1.086675,5.743859 0,0.20698 -0.06546,0.42459 0,0.62095 0.09542,0.28625 0.310479,0.51747 0.465718,0.7762 0.834813,1.39135 1.886673,2.19418 3.104787,3.26003 2.156368,1.88682 4.381913,3.95948 7.451487,4.03622 1.348961,0.0337 2.7052,-0.0886 4.036223,-0.31048 0.855626,-0.1426 1.665852,-0.4875 2.483829,-0.7762 4.262438,-1.50439 9.239415,-4.2453 11.953428,-7.917203 1.780402,-2.408779 3.272141,-4.656051 2.794308,-7.761966 -0.157204,-1.021828 -0.573479,-1.854672 -0.931436,-2.794308 -0.291269,-0.764582 -0.472331,-1.568926 -0.776196,-2.32859 -0.112061,-0.28015 -0.370303,-0.489949 -0.465718,-0.776196 -0.600477,-1.80143 -1.020866,-5.183655 -0.776197,-7.141009 0.04481,-0.358501 0.762268,-1.00508 0.931436,-1.241915 1.251191,-1.751668 2.391149,-1.123747 4.036222,-0.465718 1.343485,0.537394 0.579854,-0.0411 1.552394,0.931436 0.835702,0.835702 2.070935,1.916157 2.794308,2.949547 0.841035,1.20148 1.729649,3.836108 2.17335,5.278137 0.0776,0.252188 0.05376,0.532637 0.155239,0.776197 0.339235,0.814164 0.624969,1.061243 1.086676,1.707633 1.906441,2.669017 1.792172,2.378699 4.812419,5.278137 0.211166,0.202719 0.377398,0.458584 0.620957,0.620957 1.078106,0.718737 2.025694,0.952794 3.260026,1.397154 0.67814,0.24413 1.316967,0.609257 2.018111,0.776197 5.707027,1.358815 10.863917,1.368259 16.610611,0 1.50781,-0.359003 6.09765,-3.319758 7.29625,-4.191462 2.75333,-2.002422 4.6093,-3.317652 5.58861,-6.675291 0.10142,-0.347736 0.0201,-0.725008 0,-1.086676 -0.1392,-2.505609 -0.77967,-3.186749 -2.32859,-5.122897 -3.00647,-3.758085 -5.45193,-6.061757 -10.09055,-7.917206 -0.74587,-0.298346 -1.5665,-0.366925 -2.32859,-0.620957 -0.793094,-0.264363 -1.529573,-0.685584 -2.328594,-0.931436 -0.55296,-0.170142 -1.146364,-0.170162 -1.707633,-0.310479 -2.976243,-0.744061 0.299981,-0.265482 -3.104787,-0.776197 -0.463399,-0.06951 -0.940078,-0.05203 -1.397154,-0.155239 -2.415902,-0.545526 -4.791039,-1.262764 -7.141009,-2.018111 -2.386248,-0.767009 -7.60719,-1.94165 -8.693402,-4.65718 -0.709846,-1.774615 2.462068,-3.787815 3.104787,-4.346701 2.929987,-2.547815 6.523766,-4.550158 9.935317,-6.364813 8.683835,-4.619061 -1.185052,0.99955 7.296248,-4.036222 1.067611,-0.633894 2.25292,-1.226832 3.104786,-2.173351 0.201848,-0.224275 0.298348,-0.525141 0.465718,-0.776196 1.279173,-1.918765 1.006923,-1.854349 1.552393,-4.036223 1.23498,-4.939906 0.28778,-11.305586 -1.552393,-15.989651 -0.270348,-0.68816 -2.142682,-4.553765 -2.328589,-4.812419 -1.323367,-1.841205 -3.582393,-3.468431 -5.588616,-4.50194 -2.575749,-1.326901 -2.420343,-1.691167 -4.501941,-1.552394 -0.365092,0.02434 -0.753896,0.0031 -1.086675,0.15524 -4.158938,1.901229 -3.435101,1.41699 -5.588616,3.570504 -0.72445,0.724451 -1.511565,1.391241 -2.17335,2.173351 -2.840208,3.356608 -4.493317,9.583708 -5.743855,13.8163 -1.176916,3.983407 -0.460073,1.834647 -1.241915,5.743855 -0.189297,0.946486 -0.543072,1.861808 -0.776197,2.794308 -0.07002,0.28006 -0.142893,1.086675 -0.465718,1.086675 -1.41111,0 -2.824416,-0.307657 -4.036222,-1.086675 -0.43528,-0.279823 -0.801212,-0.660234 -1.241915,-0.931436 -0.237326,-0.146047 -0.566481,-0.126978 -0.776196,-0.310479 -0.227076,-0.198691 -0.33078,-0.50632 -0.465718,-0.776196 -0.715703,-1.431405 -1.162108,-2.024139 -1.086676,-3.570505 0.07344,-1.505476 0.539903,-5.513874 0.776197,-7.451487 0.199326,-1.634473 0.770123,-5.678826 0.465718,-7.606728 C 63.556786,19.033427 62.90177,16.328633 61.785252,13.971539 61.086037,12.495419 61.356506,13.291458 60.543338,12.108668 59.916799,11.197338 59.439809,10.220515 58.835705,9.3143596 58.71629,9.1352373 58.489402,9.027764 58.369987,8.8486417 58.303193,8.7484503 58.12674,8.2949163 58.059508,8.2276843 c -0.03659,-0.03659 -0.118649,0.03659 -0.155239,0 -0.03659,-0.03659 0,-0.1034928 0,-0.1552393 0,-0.3905126 -0.121384,-1.0330025 0,-1.3971539 0.124622,-0.3738658 0.310479,-0.7244502 0.465718,-1.0866753 z"
       id="path33" />
    <path
       style="fill:#00b837;fill-opacity:0;stroke:#000000;stroke-opacity:1"
       d="m 57.128072,55.109961 c -2.276843,0.827943 -4.687479,1.353857 -6.83053,2.483829 -2.195292,1.157518 -2.32859,3.836289 -2.32859,5.899095 0,1.017345 -0.03572,2.460474 0.155239,3.415265 0.167066,0.835327 1.016959,2.416371 1.552394,3.104787 1.272251,1.635751 4.085408,2.646635 6.054333,2.949547 0.613737,0.09442 1.241915,0 1.862872,0 0.724451,0 1.457999,0.114456 2.173351,0 0.59807,-0.09569 1.1393,-0.411572 1.707633,-0.620957 0.414862,-0.152844 0.85929,-0.244199 1.241914,-0.465718 2.475036,-1.432916 6.095219,-5.016846 6.675291,-7.917206 0.06089,-0.30445 -0.02578,-0.62203 0,-0.931436 0.03259,-0.391091 0.228316,-0.958693 0.15524,-1.397154 -0.133157,-0.79894 -0.684823,-1.470108 -1.086676,-2.173351 -0.264455,-0.462796 -0.66686,-0.936594 -1.086675,-1.241914 -0.280733,-0.20417 -0.620957,-0.310479 -0.931436,-0.465718 -0.517464,-0.258732 -1.013189,-0.566506 -1.552393,-0.776197 -0.397698,-0.15466 -0.839529,-0.16846 -1.241915,-0.310479 -0.480589,-0.169619 -0.916565,-0.451337 -1.397154,-0.620957 -0.597708,-0.210956 -2.456487,-0.559325 -2.949547,-0.620957 -0.256734,-0.03209 -0.520065,0.03659 -0.776197,0 -0.472283,-0.06747 -0.923343,-0.254736 -1.397154,-0.310479 -0.681356,-0.08016 -1.468506,0 -2.17335,0"
       id="path34" />
  </g>
</svg>
